<svg xmlns="http://www.w3.org/2000/svg" viewBox="0 0 1382 2184.14"><defs><style>.cls-1{opacity:0.5;}.cls-2{fill:none;stroke:#231f20;stroke-linecap:round;stroke-linejoin:round;stroke-width:3.14px;}</style></defs><title>Asset 2</title><g id="Layer_2" data-name="Layer 2"><g id="Layer_1-2" data-name="Layer 1"><g class="cls-1"><polyline class="cls-2" points="328.55 12.56 325.41 50.23 334.82 197.79 328.55 298.26"/><polyline class="cls-2" points="286.16 50.23 325.41 50.23 372.5 75.35 391.34 47.09"/><polyline class="cls-2" points="372.5 75.35 381.92 178.95 369.36 282.56 385.06 276.28"/><polyline class="cls-2" points="284.59 301.4 328.55 298.26 369.36 282.56 366.22 317.09 381.92 317.09"/><polyline class="cls-2" points="413.31 166.4 381.92 178.95 334.82 197.79 284.37 200.34"/><polyline class="cls-2" points="366.22 354.77 359.94 395.58 400.75 452.1 510.64 461.51 629.94 477.21 956.46 552.56 1380.29 596.51 1380.29 665.58 950.18 671.86 564.01 653.03 564.01 583.96 507.5 499.19 510.64 461.51"/><polyline class="cls-2" points="1376.96 612.55 962.73 580.82 614.24 508.61 507.5 499.19 400.75 558.84"/><polyline class="cls-2" points="956.46 552.56 962.73 580.82 965.87 627.91 950.18 671.86"/><polyline class="cls-2" points="629.94 477.21 614.24 508.61 564.01 583.96 965.87 627.91 1380.43 643.79"/><polygon class="cls-2" points="400.75 558.84 315.99 700.12 312.85 819.42 438.43 872.79 520.06 813.14 542.03 709.54 400.75 558.84"/><line class="cls-2" x1="564.01" y1="653.03" x2="542.03" y2="709.54"/><polyline class="cls-2" points="413.31 656.16 441.57 709.54 444.71 762.91 429.01 769.19 381.92 734.65 315.99 700.12 413.31 656.16 489.12 654.14 504.36 737.79 463.55 772.33 444.71 762.91"/><polyline class="cls-2" points="312.85 819.42 381.92 819.42 429.01 788.03 429.01 769.19"/><polyline class="cls-2" points="504.36 737.79 504.36 806.86 444.71 847.68 381.92 819.42 381.92 734.65 441.57 709.54 504.36 737.79 520.06 813.14 469.82 791.17 444.71 797.45"/><line class="cls-2" x1="363.08" y1="938.72" x2="366.22" y2="1108.26"/><line class="cls-2" x1="284.59" y1="1083.14" x2="366.22" y2="1108.26"/><polyline class="cls-2" points="284.59 872.79 363.08 938.72 438.43 872.79 444.71 847.68 444.71 797.45 429.01 788.03"/><polyline class="cls-2" points="573.43 1444.19 501.22 1494.42 388.2 1525.82 315.99 1528.96"/><polyline class="cls-2" points="284.59 364.19 325.41 357.91 366.22 354.77 381.92 317.09 385.06 276.28 413.31 166.4 391.34 47.09 326.98 10.99 283.02 1.57 284.59 1538.38 315.99 1528.96 391.34 1478.73 494.94 1343.73"/><polyline class="cls-2" points="286.89 1481.38 391.34 1478.73 388.2 1525.82 385.06 1579.19"/><polyline class="cls-2" points="501.22 1582.33 501.22 1494.42 494.94 1343.73 391.34 1415.94 287.73 1444.19"/><polyline class="cls-2" points="573.43 1444.19 570.29 1557.21 501.22 1582.33 385.06 1579.19 315.99 1528.96 328.55 1764.42 375.64 1755.01"/><polyline class="cls-2" points="570.29 1557.21 554.59 1736.17 482.38 1742.45 501.22 1582.33"/><polyline class="cls-2" points="385.06 1579.19 375.64 1755.01 482.38 1742.45 472.96 2112.91 507.5 2172.57 554.59 1736.17"/><polyline class="cls-2" points="472.96 2112.91 385.06 2112.91 375.64 1755.01"/><polyline class="cls-2" points="328.55 1764.42 353.66 2181.99 385.06 2112.91"/><line class="cls-2" x1="463.55" y1="772.33" x2="469.83" y2="791.17"/><polyline class="cls-2" points="286.16 50.23 236.59 50.65 189.73 76.2 170.63 48.12"/><polyline class="cls-2" points="189.73 76.2 181.28 179.89 194.8 283.37 179.04 277.24"/><line class="cls-2" x1="198.26" y1="317.88" x2="194.8" y2="283.37"/><polygon class="cls-2" points="165.98 559.93 252.06 700.42 256.31 819.68 131.24 874.23 49.06 815.34 26.11 711.94 165.98 559.93"/><line class="cls-2" x1="3.61" y1="655.64" x2="26.11" y2="711.94"/><polyline class="cls-2" points="252.06 700.42 154.33 657.37 78.51 656.05 64.05 739.85"/><line class="cls-2" x1="64.05" y1="739.85" x2="49.06" y2="815.34"/><polyline class="cls-2" points="284.59 1083.14 205.64 1109.01 124.22 1131.75 89.48 1110.09 91.33 971.93 126.22 1009.28 207.2 939.45 205.64 1109.01 181.81 1247.38 81.26 1238.89 49.66 1217.21 89.48 1110.09"/><polyline class="cls-2" points="91.33 971.93 49.06 815.34 126.22 1009.28 124.22 1131.75 81.26 1238.89"/><polyline class="cls-2" points="284.59 872.79 207.2 939.45 131.24 874.23"/><polyline class="cls-2" points="284.59 1538.38 259.79 1529.22 183.98 1479.69 79.12 1345.66 19.06 1302.27 1.57 1446.86 74.25 1496.41 187.56 1526.76 259.79 1529.22"/><polyline class="cls-2" points="284.59 364.19 239.46 358.31 198.61 355.55 182.56 318.02 179.04 277.24 149.76 167.63 170.63 48.12 234.65 11.42"/><polyline class="cls-2" points="288.45 1481.37 183.98 1479.69 187.56 1526.76 191.19 1580.1"/><polyline class="cls-2" points="75.06 1584.32 74.25 1496.41 79.12 1345.66 183.39 1416.9 284.59 1444.19"/><polyline class="cls-2" points="1.57 1446.86 5.76 1559.85 75.06 1584.32 191.19 1580.1 259.79 1529.22 249.43 1764.79 202.25 1755.82"/><polyline class="cls-2" points="5.76 1559.85 23.13 1738.65 95.39 1744.25 75.06 1584.32"/><polyline class="cls-2" points="191.19 1580.1 202.25 1755.82 95.39 1744.25 108.27 2114.61 74.29 2174.59 23.13 1738.65"/><polyline class="cls-2" points="108.27 2114.61 196.17 2113.8 202.25 1755.82"/><polyline class="cls-2" points="249.43 1764.79 228.21 2182.57 196.17 2113.8"/></g></g></g></svg>