<svg xmlns="http://www.w3.org/2000/svg" viewBox="0 0 271.4 276.51"><defs><style>.cls-1{fill:none;}.cls-2{fill:#f6ddc6;}.cls-3{fill:#e0c5b2;}.cls-4{fill:#dfc6b3;}.cls-5{fill:#cbb19a;}.cls-6{fill:#e08f82;}.cls-7{fill:#f2cebe;}.cls-8{fill:#ddc3b0;}.cls-9{fill:#cab09a;}.cls-10{fill:#cab099;}.cls-11{fill:#f5ddc5;}.cls-12{fill:#baa18b;}.cls-13{fill:#cbb099;}.cls-14{fill:#c2a892;}.cls-15{fill:#cbb09a;}.cls-16{fill:#c9af98;}.cls-17{fill:#caaf98;}.cls-18{fill:#f7a291;}.cls-19{fill:#b89f8b;}.cls-20{fill:#bca18e;}</style></defs><title>brain</title><g id="Layer_2" data-name="Layer 2"><g id="Layer_1-2" data-name="Layer 1"><path class="cls-1" d="M121.17,26.75a1.13,1.13,0,0,0,.21.84c-.07-.29-.12-.6-.18-.91Z"/><path class="cls-1" d="M148.39,23.54c-.15-.17-.3-.31-.45-.47a1.13,1.13,0,0,1-.15.39l.68.27C148.44,23.67,148.42,23.6,148.39,23.54Z"/><path class="cls-1" d="M165.89,172.23h0a.33.33,0,0,1,0,.06l.08-.13-.11.07Z"/><path d="M192.76,67.28c.07-.34.15-.68.25-1A3,3,0,0,0,192.76,67.28Z"/><path class="cls-2" d="M148.39,23.54c0,.06.05.13.08.19l.19.08Z"/><path class="cls-2" d="M128.67,81.38a.83.83,0,0,0,.07-.13l-.07,0Z"/><path class="cls-2" d="M128.62,81c-.05.18-.07.37-.12.55a2.6,2.6,0,0,0-.1.25c.08-.17.18-.33.26-.51S128.64,81.08,128.62,81Z"/><path class="cls-2" d="M234.11,111.26c4.11,7.21,1.87,12.95-3.5,18.22h0c-2.42,5.3-5.69,9.34-12.38,8.21h0a11.25,11.25,0,0,0-1.29.38c-.14.06-.31.45-.26.5,2.35,2.39,5.12,1.84,8.07,1.44,7-.93,14-1.53,21-2.27h0a29.85,29.85,0,0,0,2.78-1.36,85.75,85.75,0,0,0-14.22-33.95C233.31,105.35,232.43,108.32,234.11,111.26Z"/><path class="cls-2" d="M42.6,64.2c2,1.85,2.7,2.2,2.88,2.73a49.49,49.49,0,0,1,1.87,8.67A126.66,126.66,0,0,1,57.68,64.32a132,132,0,0,1,10.67-9.25c-.19-.89-.14-1.78,1.14-2a1.87,1.87,0,0,1,1.25.21q4-3,8.21-5.61a10,10,0,0,0-1.86-1.56c-2.33-1.45-5.35-4.51-8-1.68-6,6.48-16.32,5.94-20.84,14.29C46.78,56.92,48.21,54,45.38,54c-2.16,0-2.21,2.09-2.64,3.5a20.48,20.48,0,0,1-3.56,7.29h0V77c-1.52-2-2.94-3.15-5-1-3,3.1-2.18,6.78-1.3,10.32.35,1.43,1.28,3.61,3.2,2.73,3.48-1.6.47-5.46,2.51-8.31a35.9,35.9,0,0,1,2,3.89c1.38-2,2.81-4.08,4.32-6.06C44.17,74.05,43.74,69.22,42.6,64.2Z"/><path class="cls-2" d="M188,147.46c-.14,1.56-.28,3.11-.48,5.41a18.61,18.61,0,0,1-2.9-2.69,156.53,156.53,0,0,0-29.25-33.29c-13.65-11.79-28.09-21.51-46.79-23.52-6.86-.73-12.71-4.24-17.35-11.29q-3.64,2.91-7,6.21c-.59.58-1.15,1.18-1.72,1.76,2.87,1.84,5.46,4,6.32,7,2.83,10.1,9.31,15.4,19.29,18.14,7.36,2,13.58,7.3,21.55,9.52.06-5.61,2.51-9.36,7.92-11.43.36,3.42-2.47,4.11-3.55,5.95-1.65,2.81-2.6,6,.86,7.69,6.39,3.18,12.64,10.39,20.28,1.95a2.11,2.11,0,0,1,3.08.14c-7.27,10.61-7.27,10.61,1.35,17.55,2.31-1.63,2-6.91,7.15-5.39-3.74,4.81-3.74,4.81.3,9.42,6.35,7.25,5.82,17.63-1.05,21.56l-.08.13c1.54,3.14,4.85,3,7.54,3.85,2.92,1,6.43-1.1,9.08,1.64,5.54-5.58,5.87-12.89,6.76-20,.37-3.05-1.19-6.39,1.31-9.13A2.59,2.59,0,0,0,188,147.46Z"/><path class="cls-2" d="M135.47,1.85C122,5.07,125.28,18.05,121.2,26.68c.06.31.11.62.18.91a11.62,11.62,0,0,0,2.51,2.75l.15.1A157,157,0,0,1,148,28a10.29,10.29,0,0,0-10.33-1.24c-4.55,2.1-8,1.43-11.14-2.94,7.09,4.15,12.9-3.69,21.29-.38a1.13,1.13,0,0,0,.15-.39c-4.64-4.84-9.32-6.95-12.22-11.47,7.65,1.09,14.18,6.85,15,12.71a20.8,20.8,0,0,0,.75,3.64c.44,0,.87,0,1.3,0,5.71,0,11.25.3,16.67.84.11-.1.24-.17.35-.27,4.7-4.63,10.13-7.1,17.92-5-4.23,1.31-7.67,2.26-11,3.46-1.3.47-3.2.42-3.62,2.19a137.74,137.74,0,0,1,33.46,8.33,17.78,17.78,0,0,0-2.57-3.4C194.54,22.64,182.82,15.92,167.63,15c-9.22-.57-13-5.81-12.65-14.75l-18.33,0C136.27.81,136,1.73,135.47,1.85Z"/><path class="cls-2" d="M85.72,34.47c.33-2.23,1.78-5.38-1.66-6.49-3.91-1.26-10.42,4.8-10.53,8.92S76.36,42.32,79,44A12.5,12.5,0,0,1,81.63,46c2.07-1.23,4.17-2.4,6.32-3.5C85.68,40.92,85.14,38.32,85.72,34.47Z"/><path class="cls-2" d="M201.46,78a29.38,29.38,0,0,1,3.82-2.72,89.53,89.53,0,0,0-11.9-6.09,30.11,30.11,0,0,1,3.56,7.92C197.91,79.89,199.34,79.88,201.46,78Z"/><path class="cls-2" d="M73.51,114.37c1.56,1.63,2.84,3.69,4.7,4.82Q99.12,131.85,119,146h0c3.34,3.24,7.54,2.8,11.64,2.65,3.89-.15,6.69,1.13,7.65,5.25,1.81,7.73,4,9.07,12.28,7.48-.55,6,5.58,10,12.55,8,2.59-2,3.31-5.15,3.56-7.93.29-3.22.26-7.68-4-8.39-5.77-1-8.52-5.3-11.4-9.16a38.62,38.62,0,0,0-13.54-11.32c-5.68-2.94-11.41-5.77-17.16-8.58-7.4-3.6-8.37-3.21-11.25,4.58-.77,2.07-1.5,3.84-4.47,3.08a17.85,17.85,0,0,1,.58-1.82c5.21-11.8,5.21-11.75-7.73-14.22-8.09-1.54-16.06-3.47-23.26-7.77a23.26,23.26,0,0,1-3.93-2.8q-1.92,3.06-3.57,6.26a35.75,35.75,0,0,0,6.52,3Z"/><path class="cls-2" d="M129.28,81c-.1.14-.34.19-.54.26a.83.83,0,0,1-.07.13c.43,3.85-4,8.56.49,11.34,5.2,3.22,10.7,6,15.82,9.45.76.51,1.92,1.15,2.33.07,2.75-7.31,11.44-12.23,8.1-22.17-1.2-3.56-2.47-8.7,2.12-12.14.77,11.6,1.71,22.6-4.12,33.13-2.35,4.25,2.65,12.88,6.49,12.38,4-.52,9.15-3.42,9.58-7.48,1.17-10.8,11.4-16.5,13-27.15,2.75,2.76-1.17,8.25,7.06,7.72-8.16,3.67-13.18,7.7-16,14-.69,1.54-1.38,3-.24,4.48s2.54.11,3.75-.21c2.8-.75,5.56-1.66,9.49-2.86-3,4.34-6.4,5.06-9.65,6-3,.91-6.29,1.25-8.18,4.37-1.32,2.19-6.09,3.21-2.59,7,2.89,3.11,6.15,2.41,9.17-.06,3.79-3.1,8.42-4.58,12.83-3.25,5.19,1.55,10.13,4.06,17.24,4.79-7.73,2.47-9.11,2.6-13.05,0a13.64,13.64,0,0,0-9.79-2.19c3.94,8.19,11.89,11.28,19.26,15.09h0c3.38-.16,5.59-4.29,10.06-1.76,7.9,4.49,11.43,3.35,17.49-3.68,4.25-5.79,4.74-11.57-.06-17.33-1.08-1.3-2-3-.76-4.35a17.09,17.09,0,0,0,4-6.65,96.92,96.92,0,0,0-10.06-11.38.94.94,0,0,1-.1-.1c.63,3.64.23,7.75-.94,12.44-.46-4.33-.61-7.05-1.06-9.72a26.84,26.84,0,0,0-1.66-6.08,98.13,98.13,0,0,0-8.25-6.48c-.39-.05-.79-.11-1.21-.14C201.71,78,199.8,83,198.13,89c-.92,3.29-2.15,7.45-6.41,8.38a23.12,23.12,0,0,1,2.62-7c2.72-5.13,2.75-10-1-14.73-4.15-5.35-9.8-6.1-15.88-5.52s-5.32,5.66-6.5,9.73c-.81,2.81-.18,6.41-3.55,8.71,0-1.74-.35-3.21.06-4.4,2.88-8.36,1.16-15.12-6.17-20.48a28.7,28.7,0,0,1-2.4-1.94c-1.56-.06-3.14-.1-4.74-.1-3.17,0-6.27.13-9.31.35.16,3.46.56,6.92.5,10.28a86.07,86.07,0,0,1-2.92,20.14c-.49,1.9-1.41,2.88-3.33,2.43-2.25-.52-1.1-2.21-.74-3.26,3.27-9.55,2.82-19.43,2.87-29.26q-5.42.55-10.56,1.6C132.07,70.57,131.68,77.53,129.28,81ZM205,100c3.19-4.88,6.74-9.52,10.15-14.25l1.53,1.11c-2.27,3.87-4.37,7.85-6.87,11.57-2.21,3.3-3.16,5.93-.48,9.82,3.7,5.36,2.65,11-2.05,15.93,2.39-7.05,1.33-13.46-2.6-19.6C204,103.52,204.27,101.15,205,100Z"/><path class="cls-2" d="M83.44,16.22c-2.51,1.09-5.33,1.63-7.11,3.83-1.23,1.52-5,2.34-2.7,5.16,1.52,1.89,3.84,1.69,6.7.89,4.81-1.34,7.72-5.12,11.79-8.24.4,3.8-3.07,4.6-2.93,6.94s3.59,4.33,2,6.85c-2.45,3.87-2.56,6.9-.25,9.43a125.88,125.88,0,0,1,14.3-5.82,6.59,6.59,0,0,0-1.21-4.2c-1.62-2.17-5.72-4.94-2.9-7,2.62-1.92,3.82,3.44,6.2,5,1.93,1.24,2,3.07,1.51,5.1,3.52-1.07,7.11-2,10.79-2.82C114,24.39,108.27,17.54,99.11,14.6a6.7,6.7,0,0,1-4.73-6.15l-5.71,2.4h0C89.8,15.37,85.65,15.26,83.44,16.22Z"/><path class="cls-2" d="M103.45,77.18c-.72-.63-1.42-1.32-2.12-2A92,92,0,0,0,92.68,81c5.48,3,9.77,5.88,14.94,7.13,8.54,2,16.2,3,20.78-6.37a2.6,2.6,0,0,1,.1-.25c.05-.18.07-.37.12-.55-.92-5.34-.09-10.87-.33-16.53A92.76,92.76,0,0,0,103.38,74a12.46,12.46,0,0,1,1,2.12C104.41,76.19,104.1,76.42,103.45,77.18Z"/><path class="cls-2" d="M82.21,90.34a90.92,90.92,0,0,0-10,12.2c5.66,4.49,12.27,6.81,20.19,7.41C87.46,103.82,87.26,95.88,82.21,90.34Z"/><path class="cls-2" d="M96.6,44.66c-4.11-.2-6.9-.87-8.65-2.12-2.15,1.1-4.25,2.27-6.32,3.5,1.25,1.36,1.85,3.12,1.12,5.86-1.49-1.57-2.62-3-3.8-4.24q-4.2,2.63-8.21,5.61A2.06,2.06,0,0,1,71.84,55C71.65,65.25,77,65.38,84.36,62.13a3,3,0,0,1,1.37-.06C92.9,62.63,98,60.64,97.2,51.38c3.61,5.75-3.12,10.4-1.19,13.45s5.38,5.64,7.37,9.13a92.76,92.76,0,0,1,24.91-9.51,26.1,26.1,0,0,0-4.25-14,19,19,0,0,1,4.75,7.12l-.24-2a14.29,14.29,0,0,1,1.52,5.71c.25.89.46,1.79.64,2.69q5.14-1,10.56-1.6A88.86,88.86,0,0,1,142.36,47h0c-6-6.36-15.63-6.88-21.31-13.89l-1.43-1.77c-3.68.8-7.27,1.75-10.79,2.82-.09.33-.19.67-.3,1-1.59,4.83,2,7.91,5.32,9s1.47-4,3.45-5.38a4.49,4.49,0,0,1,1.3-.33c3.12,11-8.62,19.28-5.44,30.4-3.84-5-2.63-10.34-.64-15.42,1.49-3.81,1.3-7.25-2.52-8.64-4.56-1.64-5-4.62-4.79-8.53,0-.33,0-.66,0-1a125.88,125.88,0,0,0-14.3,5.82A16.1,16.1,0,0,0,96.6,44.66Z"/><path class="cls-2" d="M51.19,98.34l.34-4.66c-4.1-4.41-5.61-9.53-6.58-15.11-1.51,2-2.94,4-4.32,6.06C43.07,89.93,44.94,95.6,51.19,98.34Z"/><path class="cls-2" d="M210.4,78.62a98.13,98.13,0,0,1,8.25,6.48A10.07,10.07,0,0,0,210.4,78.62Z"/><path class="cls-2" d="M232.47,99.94c1.8-5.89-.73-11.87-5.13-18.28,8.7,5.72,10.24,9.9,7.75,18.34-.24.81-.52,1.62-.8,2.43a85.75,85.75,0,0,1,14.22,33.95,35.16,35.16,0,0,0,11.68-10.72c6.95-9.7,6.81-15.18-2.77-22-6-4.29-10.52-9.11-13.42-15.86-1-2.36-3.82-5.82-5.53-5.67-8.73.76-12.77-7.29-19.73-9.58-1.75-.57-3.18-3.43-5.18-.75-1.86,2.51-.1,4.34,1.8,5.77a16.86,16.86,0,0,1,6.95,10.89.94.94,0,0,0,.1.1A96.92,96.92,0,0,1,232.47,99.94Z"/><path class="cls-2" d="M176.23,33.33q9.18,4.62,18.32,9.31c12.18,6.28,12.66,11.36,2,20-1.29,1-2.93,2.26-3.56,3.68-.1.33-.18.67-.25,1a2.94,2.94,0,0,0,.61,1.89v0a89.53,89.53,0,0,1,11.9,6.09c2.6-1.67,5.17-3.39,6.45-6.84s4.36-2.46,6.66-.16c1.78,1.79,3.91,2.77,6.17,1.37a7,7,0,0,0,3.18-6.5c-.17-3.38-2.64-5.3-5.42-6.48-8.16-3.49-15-7.82-15.46-18a3,3,0,0,0-.31-1.16,137.74,137.74,0,0,0-33.46-8.33,1.67,1.67,0,0,0-.08.32C172.73,31.78,174.56,32.5,176.23,33.33Z"/><path class="cls-2" d="M155.72,31.53c4.71.27,10.17.4,13.73-2.77-5.42-.54-11-.84-16.67-.84-.43,0-.86,0-1.3,0C152.13,29.87,153.29,31.39,155.72,31.53Z"/><path class="cls-2" d="M128.55,55.54l.24,2a33.07,33.07,0,0,1,1.28,3.67A14.29,14.29,0,0,0,128.55,55.54Z"/><path class="cls-2" d="M152.5,42c-7.29,6.16-7.94,13.08-7.61,20,3-.22,6.14-.35,9.31-.35,1.6,0,3.18,0,4.74.1-2.22-2-4-4.5-3.82-7.52.37-6.32-2.15-12-2.56-18.15A10.87,10.87,0,0,0,148,28,157,157,0,0,0,124,30.44c6.54,5.08,13.19,10,19.8,15C146.69,46,147.63,42.61,152.5,42Z"/><path class="cls-2" d="M92.68,81a92,92,0,0,1,8.65-5.87c-5-5.07-9.77-11.34-18.16-8.84-8.57,2.55-9.85,11.22-13,18.75,3-10.75-11-10.93-11.39-20,3.61.51,4.59,3.36,6.78,4.47s4.51,1.44,6.49-.1c2.58-2-.11-3.48-.79-5.21-1.06-2.75-1.88-5.6-2.73-8.43-.07-.22-.13-.46-.18-.69a132,132,0,0,0-10.67,9.25A126.66,126.66,0,0,0,47.35,75.6c1.09,7.32,2,14.72,9.38,19.54.14.09.14.43.17.65A19.5,19.5,0,0,0,67,111.38q1.65-3.19,3.57-6.26c-2-1.83-2.8-3.79-3.07-7.05a36.52,36.52,0,0,0,4.72,4.47,90.92,90.92,0,0,1,10-12.2A14.18,14.18,0,0,0,81,89.12l1.52.93c.57-.58,1.13-1.18,1.72-1.76q3.41-3.3,7-6.21c-.57-.86-1.12-1.74-1.65-2.71C90.69,79.92,91.7,80.47,92.68,81Z"/><path class="cls-3" d="M165.47,173.09c.16-.27.3-.53.45-.8a.33.33,0,0,0,0-.06h0a2.66,2.66,0,0,1-2.47-1.38,5.67,5.67,0,0,1-4.51.94c-3.93-1.19-7.38-2.71-9.93-6.58-2.27-3.45-8.27-1-10.86-5.17a9.84,9.84,0,0,1-1.49-3.8c-.6-4.21-3.26-5.76-7.2-5.7s-7.79-.36-11.06-2.89l-.33-.22c-2,2-4.85,1.08-7.36,1.35,1.45,4.44,6.59,1.5,9.31,4-.81.68-1.1,1.11-1.47,1.2-7.7,1.85-11.3-3.05-14.41-8.78-3.22-5.94-8.93-8.39-14.93-10.09s-3.67,5.26-6.67,6.83a9,9,0,0,0-1.51,1.4c-3.45,3-6.85,6.07-1.81,10.59a1.55,1.55,0,0,1,.3,2.38,2,2,0,0,1-2.52.15c-4.32-2.07-5.64-8.54-2.42-12.12,1.38-1.53,2.94-2.9,4.38-4.38,1-1,1.83-2.16,1.17-3.66s-2.3-1.47-3.57-1.27c-3.37.55-6.67,1.7-10,2-2.8.23-5.52.57-8.19,1a110.92,110.92,0,0,0-1.48,18.25c0,1.87.06,3.72.15,5.55a192.54,192.54,0,0,1,38.22,7.48c1.54.49,3.37.41,4,2.14.66,1.88-.93,3-2.18,3.89-3.16,2.24-6.44,4.31-9.67,6.45h0c-6.59,3-3.33,9-4.12,13.74,7-.82,12.7,3.84,19.39,4.24h0c8.22-1.59,11.87-8.64,16.56-14.26,2.65-3.18,4-5.11,9.08-2.93,11.4,4.89,23.13,9.57,36.2,6.38,7.38-1.79,13.6-5,18.12-11.2C176.36,178,169.8,179.63,165.47,173.09Zm-59.35-1.51c6.84-3,13.43-5.85,20-8.77a5.15,5.15,0,0,1,3.92.54c4.95,2.75,10,2.41,16.23.6-3,4.36,1.29,6,2.18,9.77C134.59,163.23,120.53,167.39,106.12,171.58Z"/><path class="cls-3" d="M58.29,138.05c-13.67,2.35-25.6,8.1-34.33,20.28,1.13,1.49,2.78,1.34,4.38,1.43,9.56.53,19.12,1.1,28.62,2.09-.09-1.83-.15-3.68-.15-5.55A110.92,110.92,0,0,1,58.29,138.05Z"/><path class="cls-3" d="M173.46,176.14c-2.69-.87-6-.71-7.54-3.85-.15.27-.29.53-.45.8,4.33,6.54,10.89,4.91,17.07,4.69C179.89,175,176.38,177.09,173.46,176.14Z"/><path class="cls-3" d="M150.58,161.42c-8.23,1.59-10.47.25-12.28-7.48-1-4.12-3.76-5.4-7.65-5.25-4.1.15-8.3.59-11.64-2.65h0a5.24,5.24,0,0,1-1,1.39l.33.22c3.27,2.53,7.1,2.95,11.06,2.89s6.6,1.49,7.2,5.7a9.84,9.84,0,0,0,1.49,3.8c2.59,4.13,8.59,1.72,10.86,5.17,2.55,3.87,6,5.39,9.93,6.58a5.67,5.67,0,0,0,4.51-.94,2.91,2.91,0,0,1-.29-1.4C156.16,171.37,150,167.45,150.58,161.42Z"/><path class="cls-4" d="M86.5,131.6c11.31,1.31,18.11,8.45,24.06,17,1.78-1.62,4-1.67,6.22-2-9.21-6.07-17.78-13.06-27.49-18.44A87.87,87.87,0,0,1,72.8,116.44c-1,1.28-3,.87-4.4.4-1.15-.38-2.31-.76-3.44-1.21-1,2.19-1.88,4.42-2.68,6.7.45.24.89.5,1.33.79-.58,0-1.09,0-1.63,0a93.29,93.29,0,0,0-3.15,11.88c4.05-1,8.08-2.39,12.1-3.13A51.47,51.47,0,0,1,86.5,131.6Z"/><path class="cls-4" d="M38.91,87.28l.73-1.12c-.13-.45-.26-.9-.37-1.37A19.08,19.08,0,0,1,38.91,87.28Z"/><path class="cls-4" d="M18.49,158.29c.5-.65,1-1.27,1.57-1.89v-.1a150.18,150.18,0,0,1,1.48-21.19c-1.12-.74-2.23-1.58-3.34-2.43A16.32,16.32,0,0,0,21.73,134,120.53,120.53,0,0,1,37.1,90.22c-.84.37-2,.21-3.61-.71-4.31-2.43-4-13.49.7-14.85,3.68-1.06,3.39-2.7,3.22-5.09-1.91,4.17-8.29,4.92-10,9.7-2-6.27,1.2-12.15-2.09-17.35-10.67,16.19-20,33-23.66,52.36a105,105,0,0,0-1,31.09c.69,6.32,6.86,9.31,9.32,14.6h0C11.9,154.65,15.9,160,18.49,158.29Z"/><path class="cls-4" d="M37.71,64.81h0c0,.12,0,.22,0,.34.09-.11.16-.23.24-.35Z"/><path class="cls-4" d="M39.4,139.7c1.19-.83,3.56-1,2.86-3.13-.59-1.8-2.6-1.59-4.19-1.58-1.14,0-2.57-.16-3.35.44-5,3.8-9.13,2.38-13.18-.32a150.18,150.18,0,0,0-1.48,21.19v.1C25.63,149.85,32.38,144.62,39.4,139.7Z"/><path class="cls-4" d="M38.76,132.3a1.89,1.89,0,0,1,1.34.15c6.29,4.58,12.53,4.1,18.73,2.6A93.29,93.29,0,0,1,62,123.17c-7.12.18-11.15-2.21-13-7.55-.57-1.62,0-3.85-2.79-3.89-2.35,0-3.75,1.34-5,3.09-1.1,1.55-.49,5.79-3.95,3.74-3.15-1.85.25-4.31,1-6.29.83-2.19,2.91-3.19,5.45-3.49,7.28-.89,10.25-4.69,9-11.21a2.77,2.77,0,0,1-1.25,1.34c-1.94,1.08-3.45-.54-4.82-1.68a21.44,21.44,0,0,1-6.94-11.07l-.73,1.12c-.32,1.45-.86,2.53-1.81,2.94A120.53,120.53,0,0,0,21.73,134C27.5,135.33,33.11,133.36,38.76,132.3Z"/><path class="cls-4" d="M58.39,109.45c-.51-1.56-1.1-3.38-3.16-2.64-3.1,1.1-4,8.91-1.53,11.29,2.28,2.21,5.51,2.62,8.58,4.23.8-2.28,1.7-4.51,2.68-6.7C62.11,114.49,59.53,112.88,58.39,109.45Z"/><path class="cls-4" d="M119,146q-19.87-14.22-40.8-26.85c-1.86-1.13-3.14-3.19-4.7-4.82a3.68,3.68,0,0,1-.71,2.07,87.87,87.87,0,0,0,16.49,11.72c9.71,5.38,18.28,12.37,27.49,18.44A10.56,10.56,0,0,0,119,146Z"/><path class="cls-4" d="M39.27,84.79c.11.47.24.92.37,1.37.33-.51.65-1,1-1.53a35.9,35.9,0,0,0-2-3.89c-2,2.85,1,6.71-2.51,8.31-1.92.88-2.85-1.3-3.2-2.73C32,82.78,31.21,79.1,34.18,76c2.06-2.14,3.48-1,5,1V64.78h0L38,64.8c-.08.12-.15.24-.24.35a7.07,7.07,0,0,1-.35,4.42c.17,2.39.46,4-3.22,5.09-4.68,1.36-5,12.42-.7,14.85,1.61.92,2.77,1.08,3.61.71.59-1,1.2-2,1.81-2.94A19.08,19.08,0,0,0,39.27,84.79Z"/><path class="cls-4" d="M51.19,98.34c-6.25-2.74-8.12-8.41-10.56-13.71-.34.5-.66,1-1,1.53a21.44,21.44,0,0,0,6.94,11.07C48,98.37,49.46,100,51.4,98.91a2.77,2.77,0,0,0,1.25-1.34,23.86,23.86,0,0,0-1.12-3.89Z"/><path class="cls-4" d="M38.91,87.28c-.61,1-1.22,2-1.81,2.94C38.05,89.81,38.59,88.73,38.91,87.28Z"/><path class="cls-4" d="M110.56,148.62l.12.16h0c2.51-.27,5.41.65,7.36-1.35-.43-.27-.84-.55-1.26-.83C114.61,147,112.34,147,110.56,148.62Z"/><path class="cls-4" d="M119,146a10.56,10.56,0,0,1-2.23.56c.42.28.83.56,1.26.83A5.24,5.24,0,0,0,119,146Z"/><path class="cls-5" d="M170.22,75.93c.61-3.39,1.92-6.36,6.79-7.28,5.92-1.12,11.79-.29,15.9,4.24a12.61,12.61,0,0,1-.36-4c-1.57-.64-3.16-1.25-4.76-1.8-1.46.78-3.34.39-5.15.39a4.83,4.83,0,0,1-4.7-3.21c-1-.22-2-.42-3-.61.56,1.74.54,3.08-1.46,4.19-2.32,1.27-3.16-.22-4.43-1.64s-2.45-2.63-3.63-3.94c-1.14-.11-2.3-.2-3.45-.28.44.43.9.85,1.41,1.26C168,66.83,170.14,71.08,170.22,75.93Z"/><path class="cls-5" d="M172.5,14.07a46.87,46.87,0,0,1,8.08,1.64c12.3,3.78,21.54,10.89,26.87,22.13,2.34.93,4.64,1.94,6.91,3-.05-.14-.09-.29-.14-.42-.85-2.39,1.14-5.42,3.59-4.25,5.18,2.47,9.42,2.34,13.78-1.36,1.1-.94,4.92,2.41,4-1.77-.72-3.4-4-3.58-6.6-1.66a8.09,8.09,0,0,1-8.39.89c-2.06-.81-4.06-.85-5.78.73-2.53,2.34-4.28.65-6.58-.72-6.78-4-10.84-11-17.57-15.21-7.82-4.84-16.82-3.62-25.06-6-9.14-2.61-9.6-4.23-4-11L155,.23C156.59,10.2,163.75,13,172.5,14.07Z"/><path class="cls-5" d="M141.87,15.66c1,1,2.72,1.9,4.14,3.28A20.06,20.06,0,0,0,141.87,15.66Z"/><path class="cls-5" d="M146.88,23.74c-5.43-1.46-9.64,2.56-14.63,2.5a12.41,12.41,0,0,0,4.68-.63c6.66-2.61,9-2.29,12.72,2.38h.45c-.14-.31-.28-.61-.41-.94-.47-1.31-.87-2.38-1.22-3.31l-.68-.27A.75.75,0,0,1,146.88,23.74Z"/><path class="cls-5" d="M241.85,58.42c.88.74,1.77,1.48,2.64,2.25a5.24,5.24,0,0,1,1,0c1.92.24,3.09,1,1.91,2.7.35.33.72.63,1.06,1,.65.62,1.25,1.25,1.87,1.87a5.63,5.63,0,0,1,1.64-2c2.81-2.25,4.34,1.14,6.15,2.58,3.14,2.51,4.72,6.12,6.51,9.58,1.45,2.79,2.23,6.13,5.65,7.44l.06-2.45h0c-2.18-4-4.43-8-6.54-12C259,60.09,251.12,56.17,241.85,58.42Z"/><path class="cls-5" d="M148,22.45a2.45,2.45,0,0,1,0,.62c.15.16.3.3.45.47C148.25,23.15,148.1,22.79,148,22.45Z"/><path class="cls-5" d="M245.08,139.09c-.41.78-.67,1.56.31,2.25a3.49,3.49,0,0,0,3.9-.05q-.24-1.74-.54-3.45a29.11,29.11,0,0,1-3.55,1.26Z"/><path class="cls-5" d="M220.71,87l-.1-.09a34.8,34.8,0,0,1,1.09,8.55A27.4,27.4,0,0,0,220.71,87Z"/><path class="cls-5" d="M180.13,24.51a5.9,5.9,0,0,0,1.6-.64c-3.17,1.14-7.63.46-9,3.06a10.94,10.94,0,0,1-1.35,2l.67.07C172.83,25.06,177,25.38,180.13,24.51Z"/><path class="cls-5" d="M197.3,79.7l-.37-.33a13.72,13.72,0,0,1,.89,5.72c.87-4.2,4-6.6,7.91-7.74A10.79,10.79,0,0,1,208,77l-1.1-.69c-2.17,1.25-4.56,2.21-6.48,3.8C199.46,80.83,198.32,80.54,197.3,79.7Z"/><path class="cls-5" d="M248.49,72.91c3.2,4.16,6.39,8.31,8.13,13.37.49,1.42,1.11,3.15,3.32,2.54,1.17-1.49-.07-2.69-.61-3.78-2.13-4.29-4-8.71-7.34-12.35-1.83-2-2.58-4.41-1.61-6.5-.62-.62-1.22-1.25-1.87-1.87-.34-.33-.71-.63-1.06-1a2.7,2.7,0,0,1-.2.31C244.45,67.27,246.33,70.09,248.49,72.91Z"/><path class="cls-5" d="M258.19,101.12A23,23,0,0,1,247.8,89.69c-2.69-6.4-6.9-10.93-14.76-11.39-5.23-.31-6.57-4.2-4-9,1.49-2.83,1.63-6.89,6.73-6,3.14.54,5.61-2.35,8.75-2.6-.87-.77-1.76-1.51-2.64-2.25a27.3,27.3,0,0,0-3.73,1.2c-3.87,1.57-7,1.37-9.83-1.94a13.22,13.22,0,0,0-5.4-4c-5.72-2.2-6.82-7.84-8.53-12.78-2.27-1.07-4.57-2.08-6.91-3a49.19,49.19,0,0,1,1.94,4.73A17.05,17.05,0,0,0,217,52c3.3,2,7.17,3.17,9.85,6.17,3.06,3.43,3.06,7.11.42,10.65-2.47,3.32-5.84,3.73-9,1.21s-5.07-1.55-6.51,1.47a10.83,10.83,0,0,1-4.82,4.79L208,77c3.65-.3,6.83,1.33,9.5,4.25a14.36,14.36,0,0,1,3.14,5.69l.1.09a15.5,15.5,0,0,0-6.42-8.67c-2.56-1.72-3.66-4.35-1.67-7.12s4.14-1.23,6.63-.21c6.87,2.84,11.83,9.31,19.93,9.93,2.33.18,4.44,2.71,5.45,5,3.48,7.78,9.34,13.27,16,18.35,4.58,3.52,7.59,8.54,5.25,14.5-3.38,8.56-8.61,15.54-17.09,19.11q.3,1.71.54,3.45a11.81,11.81,0,0,0,1.11-.68c3.51-2.34,6.12-6.07,10.62-6.89,3.23-4.68,6.41-9.38,7.06-15.26.13-.52.24-1,.32-1.54-.11.51-.21,1-.32,1.54C268.65,110.47,265,105,258.19,101.12Z"/><path class="cls-5" d="M158.23,46.66c-.27-10.89,2.5-14.94,13.28-12.42,9,2.1,16.51,7.62,24.33,12.09,6.22,3.56,5.66,8.26-.2,12.32-2.28,1.59-5.06,2.89-5.85,5.55a4.41,4.41,0,0,1-2,2.84c1.6.55,3.19,1.16,4.76,1.8a11.92,11.92,0,0,1,.21-1.56,3,3,0,0,1,.25-1,12.32,12.32,0,0,1,3.79-5.9c7.46-6.48,7-10.73-1.81-15.53-5.44-3-11-5.68-16.46-8.59-3-1.61-7.09-2.6-6.55-6.88,0-.13.07-.21.09-.33L171.4,29c-3.23,3.8-8,3.29-12.25,4.13-4.48.89-7.38-1.36-9.05-5.12h-.45c.49.61,1,1.3,1.55,2.07,3.93,5.5,4.63,12,5.06,18.24.37,5.6,2,10.07,5.71,13.64,1.15.08,2.31.17,3.45.28C161.64,58.06,158.4,53.74,158.23,46.66Z"/><path class="cls-5" d="M184.78,49.16c-4.32-2.73-11.76,3.89-12-7.46-1.79,3.92-2.16,6.42-1.12,7.74,3.32,4.22,1.58,9.34,3.14,13.77.05.14.09.27.13.4,1,.19,2,.39,3,.61a16.73,16.73,0,0,1-.74-2.06C175.26,55.55,177,52.52,184.78,49.16Z"/><path class="cls-5" d="M148,22.45a12.39,12.39,0,0,0-2-3.51c-1.42-1.38-3.13-2.28-4.14-3.28A20.06,20.06,0,0,1,146,18.94a8.72,8.72,0,0,1,1.36,1.64,4.48,4.48,0,0,1,.6,1.87c.13.34.28.7.42,1.09l.27.27-.19-.08c.35.93.75,2,1.22,3.31.13.33.27.63.41.94.46,0,.92,0,1.38,0a20.8,20.8,0,0,1-.75-3.64c-.83-5.86-7.36-11.62-15-12.71,2.9,4.52,7.58,6.63,12.22,11.47A2.45,2.45,0,0,0,148,22.45Z"/><path class="cls-5" d="M167.63,15c15.19.94,26.91,7.66,36.35,19.09a17.78,17.78,0,0,1,2.57,3.4l.9.37c-5.33-11.24-14.57-18.35-26.87-22.13a46.87,46.87,0,0,0-8.08-1.64C163.75,13,156.59,10.2,155,.23,154.62,9.17,158.41,14.41,167.63,15Z"/><path class="cls-5" d="M136.93,25.61a12.41,12.41,0,0,1-4.68.63c5,.06,9.2-4,14.63-2.5a.75.75,0,0,0,.91-.28c-8.39-3.31-14.2,4.53-21.29.38,3.13,4.37,6.59,5,11.14,2.94A10.29,10.29,0,0,1,148,28c.55,0,1.12,0,1.68,0C145.94,23.32,143.59,23,136.93,25.61Z"/><path class="cls-5" d="M197.82,85.09a13.08,13.08,0,0,1-2.47,6.74c.56-1.39,2-3.46,2.32-6,0-.24.1-.46.15-.69a13.72,13.72,0,0,0-.89-5.72,12.9,12.9,0,0,1-4-6.48c-4.11-4.53-10-5.36-15.9-4.24-4.87.92-6.18,3.89-6.79,7.28a21.54,21.54,0,0,1-1.32,7.43c.8-2.29.88-5,1.32-7.43-.08-4.85-2.25-9.1-6.84-12.73-.51-.41-1-.83-1.41-1.26-1-.07-2-.14-3-.18a28.7,28.7,0,0,0,2.4,1.94c7.33,5.36,9,12.12,6.17,20.48-.41,1.19-.06,2.66-.06,4.4,3.37-2.3,2.74-5.9,3.55-8.71,1.18-4.07.43-9.15,6.5-9.73s11.73.17,15.88,5.52c3.71,4.77,3.68,9.6,1,14.73a23.12,23.12,0,0,0-2.62,7c4.26-.93,5.49-5.09,6.41-8.38,1.67-6,3.58-11.09,11.06-10.56.42,0,.82.09,1.21.14-.8-.56-1.61-1.13-2.43-1.67a10.79,10.79,0,0,0-2.24.4C201.81,78.49,198.69,80.89,197.82,85.09Z"/><path class="cls-5" d="M146,18.94a12.39,12.39,0,0,1,2,3.51,4.48,4.48,0,0,0-.6-1.87A8.72,8.72,0,0,0,146,18.94Z"/><path class="cls-5" d="M220.31,91.18c.45,2.67.6,5.39,1.06,9.72,1.17-4.69,1.57-8.8.94-12.44-.53-.51-1.07-1-1.6-1.48a27.4,27.4,0,0,1,1,8.46,34.8,34.8,0,0,0-1.09-8.55c-.65-.6-1.3-1.21-2-1.79A26.84,26.84,0,0,1,220.31,91.18Z"/><path class="cls-5" d="M195.35,91.83a13.08,13.08,0,0,0,2.47-6.74c0,.23-.12.45-.15.69C197.31,88.37,195.91,90.44,195.35,91.83Z"/><path class="cls-5" d="M172.75,26.93c1.35-2.6,5.81-1.92,9-3.06a5.9,5.9,0,0,1-1.6.64c-3.09.87-7.3.55-8.06,4.53l1,.1c.42-1.77,2.32-1.72,3.62-2.19,3.34-1.2,6.78-2.15,11-3.46-7.79-2.1-13.22.37-17.92,5-.11.1-.24.17-.35.27l2,.21A10.94,10.94,0,0,0,172.75,26.93Z"/><path class="cls-5" d="M201.46,78c-2.12,1.88-3.55,1.89-4.52-.89a30.11,30.11,0,0,0-3.56-7.92l-.83-.35a12.61,12.61,0,0,0,.36,4c.16.17.34.31.49.5a20.94,20.94,0,0,1,3.53,6l.37.33c1,.84,2.16,1.13,3.09.36,1.92-1.59,4.31-2.55,6.48-3.8-.52-.34-1.05-.66-1.59-1A29.38,29.38,0,0,0,201.46,78Z"/><path class="cls-5" d="M245.73,137.74h0a7.22,7.22,0,0,1-.65,1.35h.12a29.11,29.11,0,0,0,3.55-1.26c-.08-.48-.15-1-.24-1.46A29.85,29.85,0,0,1,245.73,137.74Z"/><path class="cls-5" d="M196.93,79.37a20.94,20.94,0,0,0-3.53-6c-.15-.19-.33-.33-.49-.5A12.9,12.9,0,0,0,196.93,79.37Z"/><path class="cls-5" d="M170.22,75.93c-.44,2.46-.52,5.14-1.32,7.43A21.54,21.54,0,0,0,170.22,75.93Z"/><path class="cls-5" d="M222.32,56.67c2.78,1.18,5.25,3.1,5.42,6.48a7,7,0,0,1-3.18,6.5c-2.26,1.4-4.39.42-6.17-1.37-2.3-2.3-5.37-3.33-6.66.16s-3.85,5.17-6.45,6.84c.54.32,1.07.64,1.59,1a10.83,10.83,0,0,0,4.82-4.79c1.44-3,3.45-3.89,6.51-1.47s6.55,2.11,9-1.21c2.64-3.54,2.64-7.22-.42-10.65-2.68-3-6.55-4.15-9.85-6.17a17.05,17.05,0,0,1-7.56-9.4,49.19,49.19,0,0,0-1.94-4.73l-.9-.37a3,3,0,0,1,.31,1.16C207.27,48.85,214.16,53.18,222.32,56.67Z"/><path class="cls-5" d="M172,29.37c-.54,4.28,3.54,5.27,6.55,6.88,5.47,2.91,11,5.64,16.46,8.59,8.83,4.8,9.27,9,1.81,15.53a12.32,12.32,0,0,0-3.79,5.9c.63-1.42,2.27-2.64,3.56-3.68,10.64-8.59,10.16-13.67-2-20q-9.13-4.71-18.32-9.31c-1.67-.83-3.5-1.55-3.22-3.87a1.67,1.67,0,0,1,.08-.32l-1-.1C172.05,29.16,172,29.24,172,29.37Z"/><path class="cls-5" d="M218.65,85.1c.66.58,1.31,1.19,2,1.79a14.36,14.36,0,0,0-3.14-5.69c-2.67-2.92-5.85-4.55-9.5-4.25.82.54,1.63,1.11,2.43,1.67A10.07,10.07,0,0,1,218.65,85.1Z"/><path class="cls-5" d="M193.38,69.19v0a2.94,2.94,0,0,1-.61-1.89,11.92,11.92,0,0,0-.21,1.56Z"/><path class="cls-5" d="M215.36,77.57c-1.9-1.43-3.66-3.26-1.8-5.77,2-2.68,3.43.18,5.18.75,7,2.29,11,10.34,19.73,9.58C240.18,82,243,85.44,244,87.8c2.9,6.75,7.39,11.57,13.42,15.86,9.58,6.82,9.72,12.3,2.77,22a35.16,35.16,0,0,1-11.68,10.72c.09.48.16,1,.24,1.46,8.48-3.57,13.71-10.55,17.09-19.11,2.34-6-.67-11-5.25-14.5-6.62-5.08-12.48-10.57-16-18.35-1-2.26-3.12-4.79-5.45-5-8.1-.62-13.06-7.09-19.93-9.93-2.49-1-4.69-2.51-6.63.21s-.89,5.4,1.67,7.12A15.5,15.5,0,0,1,220.71,87c.53.5,1.07,1,1.6,1.48A16.86,16.86,0,0,0,215.36,77.57Z"/><path class="cls-5" d="M152.56,36.09c.41,6.11,2.93,11.83,2.56,18.15-.18,3,1.6,5.5,3.82,7.52,1,0,2,.11,3,.18-3.72-3.57-5.34-8-5.71-13.64-.43-6.21-1.13-12.74-5.06-18.24-.55-.77-1.06-1.46-1.55-2.07-.56,0-1.13,0-1.68,0A10.87,10.87,0,0,1,152.56,36.09Z"/><path class="cls-5" d="M159.15,33.1c4.27-.84,9-.33,12.25-4.13l-2-.21c-3.56,3.17-9,3-13.73,2.77-2.43-.14-3.59-1.66-4.24-3.58-.46,0-.92,0-1.38,0C151.77,31.74,154.67,34,159.15,33.1Z"/><path class="cls-2" d="M171.52,10.53c1.14.12,2.29.09,3.43.2,9.2.83,17.3,4.09,23.86,10.8a81.88,81.88,0,0,0,7.53,7c2.82,2.23,5.53,3.35,9.43,2.39,5-1.23,10.36.3,15.5-1.67,2.47-.94,5,.66,5.63,3.65.62,3.15-1.81,3.59-4.12,4.27-4.33,1.26-8.36,3.55-13.25,1.72-2.36-.89-3,1-2.73,3.09a127.21,127.21,0,0,1,23.31,15c11.21-2.77,21.5,2.23,25.77,12.89,1.53,3.8,3.19,7.56,4.51,11.45h0c-2.61-17.23-10.64-31.54-22.86-43.86C230.63,20.41,209.62,11,187.07,4.69,178.83,2.36,170.14,1.6,161.66.12,161.05,7.92,162.64,9.6,171.52,10.53Z"/><path class="cls-2" d="M239.49,57.14c.21-.06.42-.09.62-.15A127.21,127.21,0,0,0,216.8,42c0,.07,0,.14,0,.21C218,50.49,231.39,59.34,239.49,57.14Z"/><path class="cls-2" d="M165.64,11.11c8.24,2.35,17.24,1.13,25.06,6,6.73,4.17,10.79,11.18,17.57,15.21,2.3,1.37,4,3.06,6.58.72,1.72-1.58,3.72-1.54,5.78-.73a8.09,8.09,0,0,0,8.39-.89c2.65-1.92,5.88-1.74,6.6,1.66.89,4.18-2.93.83-4,1.77-4.36,3.7-8.6,3.83-13.78,1.36-2.45-1.17-4.44,1.86-3.59,4.25.05.13.09.28.14.42.82.38,1.64.74,2.44,1.14-.24-2.09.37-4,2.73-3.09,4.89,1.83,8.92-.46,13.25-1.72,2.31-.68,4.74-1.12,4.12-4.27-.58-3-3.16-4.59-5.63-3.65-5.14,2-10.49.44-15.5,1.67-3.9,1-6.61-.16-9.43-2.39a81.88,81.88,0,0,1-7.53-7c-6.56-6.71-14.66-10-23.86-10.8-1.14-.11-2.29-.08-3.43-.2-8.88-.93-10.47-2.61-9.86-10.41C156,6.88,156.5,8.5,165.64,11.11Z"/><path class="cls-2" d="M240.11,57l1.74,1.43c9.27-2.25,17.16,1.67,22,10.93,2.11,4,4.36,8,6.54,12-1.32-3.89-3-7.65-4.51-11.45C261.61,59.22,251.32,54.22,240.11,57Z"/><path class="cls-2" d="M222.89,53.63a13.22,13.22,0,0,1,5.4,4c2.82,3.31,6,3.51,9.83,1.94a27.3,27.3,0,0,1,3.73-1.2L240.11,57c-.2.06-.41.09-.62.15-8.1,2.2-21.5-6.65-22.67-14.94,0-.07,0-.14,0-.21-.8-.4-1.62-.76-2.44-1.14C216.07,45.79,217.17,51.43,222.89,53.63Z"/><path class="cls-6" d="M81.62,197a7,7,0,0,0-2.05.05,46.13,46.13,0,0,1-12.8,2.58c.62,1.21,1.28,2.41,2,3.59C73.68,202.81,78.81,202.81,81.62,197Z"/><path class="cls-6" d="M84.13,181a1.24,1.24,0,0,0,.75.42,12.21,12.21,0,0,1,1.18-.82,38.49,38.49,0,0,0,4.61-3c1.68-1.44,4.8-2.33,4.36-4.79s-3.64-2.42-5.73-3a185.93,185.93,0,0,0-32.21-6c.12,1.74.27,3.46.47,5.16C68.77,168,77.91,170.56,84.13,181Z"/><path class="cls-6" d="M19.91,158.3c-.24.2-.47.41-.71.6-2.92,1.53-6.16.35-9.17,1.07,1.12,3.46.44,7.12,1,10.53,1.1,7.4,1.43,15.48,10.41,19.12,2.27.92,2.05,4.9,4.71,7.16a131.32,131.32,0,0,1-6-38.48Z"/><path class="cls-6" d="M63.89,204.05h0a23.21,23.21,0,0,1,4.84-.82c-.68-1.18-1.34-2.38-2-3.59-13.24.67-24.58-5.36-34.75-15.9-3.05-3.15-3-6.69-2.17-10.2.78-3.34,4-3.45,7-4.33,6.48-1.88,12.78.62,18.94-.09.6-.07,1.19-.12,1.78-.17-.2-1.7-.35-3.42-.47-5.16q-4.85-.51-9.71-.9c-8-.64-16.4.59-23.86-3.74.1-.29.23-.54.34-.82l-3.76,0a131.32,131.32,0,0,0,6,38.48c.11.09.19.2.31.29C38,205.43,50,209.07,63.89,204.05Z"/><path class="cls-6" d="M95,172.82c.44,2.46-2.68,3.35-4.36,4.79a38.49,38.49,0,0,1-4.61,3,12.21,12.21,0,0,0-1.18.82c.7.18,1.69.19,2.43.36,3.23-2.14,6.51-4.21,9.67-6.45,1.25-.9,2.84-2,2.18-3.89-.61-1.73-2.44-1.65-4-2.14A192.54,192.54,0,0,0,57,161.85c0,.66.08,1.3.13,1.94a185.93,185.93,0,0,1,32.21,6C91.39,170.4,94.6,170.37,95,172.82Z"/><path class="cls-6" d="M28.34,159.76c-1.6-.09-3.25.06-4.38-1.43h-.1c-.11.28-.24.53-.34.82,7.46,4.33,15.86,3.1,23.86,3.74q4.86.39,9.71.9c-.05-.64-.1-1.28-.13-1.94C47.46,160.86,37.9,160.29,28.34,159.76Z"/><path class="cls-6" d="M19.2,158.9c.24-.19.47-.4.71-.6H18.49C15.9,160,11.9,154.65,10,160h0C13,159.25,16.28,160.43,19.2,158.9Z"/><path class="cls-7" d="M54.75,262.27c-1,4.87-.11,9.33,3.9,12.28,3.52,2.59,7.53,2.66,11.45-.08,2.81-2,3.62-4.55,3.51-7.67-.09-2.38,0-4.73.09-7.07A130.41,130.41,0,0,1,58,247Q56.27,254.59,54.75,262.27Z"/><path class="cls-7" d="M102.57,199.79c-7.11,1.44-13.31-1.33-19.5-4.13l-1.3,1.2a5.68,5.68,0,0,1,.44.42c-.16,3.17-2.2,5-4.84,6.06a20.48,20.48,0,0,1-7.82,1.3A90.53,90.53,0,0,0,83.37,222.1c3.12-6.89,9.9-11.33,12.07-19C95.91,201.48,100.1,200.88,102.57,199.79Z"/><path class="cls-7" d="M83.37,222.1a90.53,90.53,0,0,1-13.82-17.46,33.83,33.83,0,0,1-5.64-.58c5.63,1,5.09,4.57,3.7,8.69C63.81,224,60.68,235.42,58,247A130.41,130.41,0,0,0,73.7,259.73c.69-12.9,4.39-25.14,9.42-37.14C83.19,222.42,83.29,222.27,83.37,222.1Z"/><path class="cls-7" d="M83.19,195.55h0l-.12.11c6.19,2.8,12.39,5.57,19.5,4.13h0C95.89,199.39,90.14,194.73,83.19,195.55Z"/><path class="cls-7" d="M77.37,203.34c2.64-1,4.68-2.89,4.84-6.06a5.68,5.68,0,0,0-.44-.42l-.15.15c-2.81,5.8-7.94,5.8-12.89,6.22.28.47.54,1,.82,1.41A20.48,20.48,0,0,0,77.37,203.34Z"/><path class="cls-7" d="M63.89,204.05h0a33.83,33.83,0,0,0,5.64.58c-.28-.46-.54-.94-.82-1.41A23.21,23.21,0,0,0,63.89,204.05Z"/><path class="cls-2" d="M264,78.72c-1.95-3.35-3.36-7.07-6.28-9.77-1.25-1.15-2.52-3.45-4.49-1.92a2.16,2.16,0,0,0-.83,1.2,122.21,122.21,0,0,1,19,25.26,50.45,50.45,0,0,0-1.06-9.71C266.4,84.39,265.44,81.16,264,78.72Z"/><path class="cls-2" d="M252.43,68.23c-.33,1.22.56,2.63,1.33,3.71A62.64,62.64,0,0,1,261,85.13c.68,1.7,1.34,3.73-.9,4.78a3,3,0,0,1-4-1.73c-3.29-8.78-12.82-14.49-11.69-25.27a48.09,48.09,0,0,0-9.84,2.56c-3.16,1-4.5,4-4.7,7-.21,3.29,2.66,4.07,5.16,4.41,6.91,1,11,5.33,13.77,11.15a27.56,27.56,0,0,0,10.86,12c6.51,3.92,10,9.31,8.73,16.86,1.67-7.77,3.13-15.55,3-23.43A122.21,122.21,0,0,0,252.43,68.23Z"/><path class="cls-2" d="M264.68,76.34c-1.79-3.46-3.37-7.07-6.51-9.58-1.81-1.44-3.34-4.83-6.15-2.58a5.63,5.63,0,0,0-1.64,2c.69.68,1.38,1.35,2.05,2a2.16,2.16,0,0,1,.83-1.2c2-1.53,3.24.77,4.49,1.92,2.92,2.7,4.33,6.42,6.28,9.77,1.41,2.44,2.37,5.67,6.3,5.06C266.91,82.47,266.13,79.13,264.68,76.34Z"/><path class="cls-2" d="M245.54,60.66a5.24,5.24,0,0,0-1,0c1,.88,2,1.78,3,2.69C248.63,61.61,247.46,60.9,245.54,60.66Z"/><path class="cls-2" d="M259.67,100.06a27.56,27.56,0,0,1-10.86-12C246,82.21,242,77.83,235,76.88c-2.5-.34-5.37-1.12-5.16-4.41.2-3,1.54-6,4.7-7a48.09,48.09,0,0,1,9.84-2.56c-1.13,10.78,8.4,16.49,11.69,25.27a3,3,0,0,0,4,1.73c2.24-1,1.58-3.08.9-4.78a62.64,62.64,0,0,0-7.28-13.19c-.77-1.08-1.66-2.49-1.33-3.71-.67-.69-1.36-1.36-2.05-2-1,2.09-.22,4.49,1.61,6.5,3.31,3.64,5.21,8.06,7.34,12.35.54,1.09,1.78,2.29.61,3.78-2.21.61-2.83-1.12-3.32-2.54-1.74-5.06-4.93-9.21-8.13-13.37-2.16-2.82-4-5.64-1.24-9.24a2.7,2.7,0,0,0,.2-.31c-1-.91-2-1.81-3-2.69-3.14.25-5.61,3.14-8.75,2.6-5.1-.88-5.24,3.18-6.73,6-2.54,4.82-1.2,8.71,4,9,7.86.46,12.07,5,14.76,11.39a23,23,0,0,0,10.39,11.43c6.85,3.83,10.46,9.35,9.89,17.34.11-.51.21-1,.32-1.54C269.71,109.37,266.18,104,259.67,100.06Z"/><path class="cls-8" d="M244.19,141.56a2.06,2.06,0,0,1-.08-2.51,18.47,18.47,0,0,0-4.27.85c-6,1.55-12.23,1.46-18.35,2-4.52.38-5.84-1.54-4.47-4.89-5.86-3.26-11.29-4.3-16.64,2.29-3.55,4.36-8.93,5-15.08,2.6,1.11,2.25,1.83,3.73,2.53,5.14a.76.76,0,0,0,.11-.08c1.39-.25,2.68-.34,2.67,1.67h0c18.17,3.48,36.29,7.3,54.38-.7a42.76,42.76,0,0,0,4.77-2.46c-.08-.94-.2-1.85-.31-2.77C247.56,143.4,245.5,143.55,244.19,141.56Z"/><path class="cls-8" d="M249.45,142.69c.11.92.23,1.83.31,2.77A29.48,29.48,0,0,0,261,133.72c-3.88,2.8-6.69,7-11.25,8.85Z"/><path class="cls-8" d="M190.61,148.61h0c0-2-1.28-1.92-2.67-1.67a.76.76,0,0,1-.11.08l.21.44A2.59,2.59,0,0,1,190.61,148.61Z"/><path class="cls-8" d="M245.73,137.74h0c-7,.74-14,1.34-21,2.27-2.95.4-5.72,1-8.07-1.44-.05,0,.12-.44.26-.5a11.25,11.25,0,0,1,1.29-.38L217,137c-1.37,3.35-.05,5.27,4.47,4.89,6.12-.52,12.33-.43,18.35-2a18.47,18.47,0,0,1,4.27-.85A4.31,4.31,0,0,1,245.73,137.74Z"/><path class="cls-8" d="M245.39,141.34c-1-.69-.72-1.47-.31-2.25a6.35,6.35,0,0,0-1,0,2.06,2.06,0,0,0,.08,2.51c1.31,2,3.37,1.84,5.26,1.13-.06-.47-.1-.94-.16-1.4A3.49,3.49,0,0,1,245.39,141.34Z"/><path class="cls-8" d="M249.29,141.29c.06.46.1.93.16,1.4l.32-.12c4.56-1.87,7.37-6,11.25-8.85-4.5.82-7.11,4.55-10.62,6.89A11.81,11.81,0,0,1,249.29,141.29Z"/><path class="cls-8" d="M245.73,137.74a4.31,4.31,0,0,0-1.62,1.31,6.35,6.35,0,0,1,1,0A7.22,7.22,0,0,0,245.73,137.74Z"/><path class="cls-2" d="M28.58,74.82c3.62-2.45,7.32-5.27,8.81-10,.08,0,.16-.08.24-.12-.78-1.33-6.86-1.21-1.14-4.31C38,59.52,38,58,37.78,56.72c-.88-5.85,4.44-6.84,7-5.92,5.82,2.14,10.12-1,14.81-2.46a21,21,0,0,0,3-1.2A14.37,14.37,0,0,0,64,46.29l2.3-1.56c4.43-3.86,5.69-9.68,3.58-16.56-.6-2-1.09-4-1.63-5.93A125.58,125.58,0,0,0,33.83,50.73c-3,3.56-5.66,7.45-8.47,11.19C31.16,65.2,27.14,70.67,28.58,74.82Z"/><path class="cls-2" d="M64,46.29a14.37,14.37,0,0,1-1.39.85,16.34,16.34,0,0,0,3.69-2.41Z"/><path class="cls-2" d="M27.45,79.27c1.67-4.78,8.05-5.53,10-9.7a2.11,2.11,0,0,1,0-.25,14.51,14.51,0,0,1,.32-4.1l0-.07c0-.12,0-.22,0-.34h0a.48.48,0,0,0-.08-.16c-.08,0-.16.07-.24.12-1.49,4.78-5.19,7.6-8.81,10-1.44-4.15,2.58-9.62-3.22-12.9C28.65,67.12,25.48,73,27.45,79.27Z"/><path class="cls-2" d="M37.76,65.15l0,.07a14.51,14.51,0,0,0-.32,4.1,2.11,2.11,0,0,0,0,.25A7.07,7.07,0,0,0,37.76,65.15Z"/><path class="cls-9" d="M80,46.54a3.3,3.3,0,0,0-1.4-1.22c-3.23-1.65-5.52-3.7-6.38-6.88a5.85,5.85,0,0,1-1.73,3.36L69,43.09C72.43,41.29,74,42.39,80,46.54Z"/><path class="cls-9" d="M49.66,54.14a.9.9,0,0,1,.3.14c0-.06-.07-.2.22-.48a14.13,14.13,0,0,1,2-1.6,23,23,0,0,1-6.92.16c-2.65-.34-5.13.86-5.64,3.82s-2.3,5.41-1.88,8.43a1.35,1.35,0,0,1,.54-.14C41,59.93,39.29,50.57,49.66,54.14Z"/><path class="cls-9" d="M80,28c5.9-2.33,8-.89,7.34,5.55-.39,3.52-.79,6.65,1.87,8.34l.09,0c-4.21-5.65,2.24-12.78-1.13-18.44-1,2.79-4.68,2.09-7,3.64-3.33,2.17-6.37,1.71-8.4-1.32C70.34,22.19,74,20.48,76,18.55c1.63-1.6,3.9-2.34,6-3.26,2.49-1.09,5.21-1.84,6.7-4.44A78.42,78.42,0,0,0,68.2,22.24a23.4,23.4,0,0,1,4,10.28C73.43,29,77.08,29.16,80,28Z"/><path class="cls-9" d="M89.27,41.86l-.09,0c.08,0,.14.11.22.15S89.32,41.93,89.27,41.86Z"/><path class="cls-9" d="M50,54.28s0,0,0,0Z"/><path class="cls-9" d="M82,15.29c-2.1.92-4.37,1.66-6,3.26-2,1.93-5.63,3.64-3.27,7.19,2,3,5.07,3.49,8.4,1.32,2.36-1.55,6.06-.85,7-3.64,3.37,5.66-3.08,12.79,1.13,18.44.55-.27,1.11-.52,1.66-.78-2.31-2.53-2.2-5.56.25-9.43,1.6-2.52-1.86-4.46-2-6.85s3.33-3.14,2.93-6.94c-4.07,3.12-7,6.9-11.79,8.24-2.86.8-5.18,1-6.7-.89-2.27-2.82,1.47-3.64,2.7-5.16,1.78-2.2,4.6-2.74,7.11-3.83,2.21-1,6.36-.85,5.23-5.37h0C87.18,13.45,84.46,14.2,82,15.29Z"/><path class="cls-9" d="M50.18,53.8c-.29.28-.25.42-.22.48s0,0,0,0a.9.9,0,0,0-.3-.14C39.29,50.57,41,59.93,38.24,64.47a1.55,1.55,0,0,1,.94.31h0a20.48,20.48,0,0,0,3.56-7.29c.43-1.41.48-3.54,2.64-3.5,2.83,0,1.4,2.93,2.92,4.72,4.52-8.35,14.86-7.81,20.84-14.29,2.6-2.83,5.62.23,8,1.68A10,10,0,0,1,79,47.66c.89-.56,1.78-1.09,2.68-1.62A12.5,12.5,0,0,0,79,44c-2.65-1.66-5.58-3-5.48-7.08S80.15,26.72,84.06,28c3.44,1.11,2,4.26,1.66,6.49-.58,3.85,0,6.45,2.23,8.07.41-.21.82-.43,1.23-.63-2.66-1.69-2.26-4.82-1.87-8.34C88,27.13,85.87,25.69,80,28c-2.89,1.14-6.54,1-7.73,4.5a17.2,17.2,0,0,1,0,5.92c.86,3.18,3.15,5.23,6.38,6.88A3.3,3.3,0,0,1,80,46.54c-5.95-4.15-7.56-5.25-11-3.45-5.07,4.2-10.37,8-16.81,9.11A14.13,14.13,0,0,0,50.18,53.8Z"/><path class="cls-9" d="M96.6,44.66a16.1,16.1,0,0,1-5.67-3.58c-.55.26-1.11.51-1.66.78,0,.07.08.14.13.2s-.14-.11-.22-.15c-.41.2-.82.42-1.23.63C89.7,43.79,92.49,44.46,96.6,44.66Z"/><path class="cls-9" d="M81.63,46c-.9.53-1.79,1.06-2.68,1.62,1.18,1.19,2.31,2.67,3.8,4.24C83.48,49.16,82.88,47.4,81.63,46Z"/><path class="cls-9" d="M38,64.8a4,4,0,0,0,.24-.33,1.35,1.35,0,0,0-.54.14c0,.07,0,.13,0,.2H38Z"/><path class="cls-9" d="M38.24,64.47a4,4,0,0,1-.24.33l1.18,0A1.55,1.55,0,0,0,38.24,64.47Z"/><path class="cls-9" d="M39.58,56.18c.51-3,3-4.16,5.64-3.82a23,23,0,0,0,6.92-.16C55.34,50,59.2,49,62.56,47.14a21,21,0,0,1-3,1.2c-4.69,1.47-9,4.6-14.81,2.46-2.52-.92-7.84.07-7,5.92.19,1.29.21,2.8-1.29,3.62-5.72,3.1.36,3,1.14,4.31l.07,0C37.28,61.59,39.08,59,39.58,56.18Z"/><path class="cls-9" d="M66.25,44.73A29.26,29.26,0,0,1,69,43.09l1.53-1.29a5.85,5.85,0,0,0,1.73-3.36,12.4,12.4,0,0,1-.35-3.87,8.06,8.06,0,0,1,.38-2,23.4,23.4,0,0,0-4-10.28c.54,2,1,4,1.63,5.93C71.94,35.05,70.68,40.87,66.25,44.73Z"/><path class="cls-9" d="M72.24,32.52a8.06,8.06,0,0,0-.38,2,12.4,12.4,0,0,0,.35,3.87A17.2,17.2,0,0,0,72.24,32.52Z"/><path class="cls-9" d="M69,43.09a29.26,29.26,0,0,0-2.7,1.64,16.34,16.34,0,0,1-3.69,2.41C59.2,49,55.34,50,52.14,52.2,58.58,51.08,63.88,47.29,69,43.09Z"/><path class="cls-9" d="M37.63,64.65a.48.48,0,0,1,.08.16c0-.07,0-.13,0-.2Z"/><path class="cls-10" d="M116.54,25.25c1.67,1.94,3.34,3.85,5.09,5.67l1.09-.22a11,11,0,0,1-1.34-3.11,1.13,1.13,0,0,1-.21-.84l0-.07a20.39,20.39,0,0,1,.38-8c2.2-10.16,6.17-15.39,15.07-18.38h0c-3.26-.76-6.26.29-9.26,1.31h0c-3.78,5.33-11.67,9.15-6.28,17.84.71,1.14-1,2.4-2.12,3.14-1.59,1-2.6,0-3.11-1.37-1.94-5.26-6.61-6.36-11.23-7.75-3-.91-6.29-1.6-7.69-5l-2.59,0c2.66,2.14,4.85,5,8.18,6.13C108.48,16.56,112.62,20.7,116.54,25.25Z"/><path class="cls-10" d="M141.64,45a16.36,16.36,0,0,1,1.19,1.45l.57-.58A19.17,19.17,0,0,1,141.64,45Z"/><path class="cls-10" d="M133.65,39.6c.49.2,1,.44,1.5.69A27.74,27.74,0,0,0,132,38.16c-4-2.25-7.34-4.33-9.27-7.46l-1.09.22A36.33,36.33,0,0,0,133.65,39.6Z"/><path class="cls-10" d="M121.58,18.64a20.39,20.39,0,0,0-.38,8c4.08-8.63.77-21.61,14.27-24.83.49-.12.8-1,1.18-1.59h0C127.75,3.25,123.78,8.48,121.58,18.64Z"/><path class="cls-10" d="M99.11,14.6c9.16,2.94,14.9,9.79,20.51,16.71.66-.14,1.34-.26,2-.39-1.75-1.82-3.42-3.73-5.09-5.67-3.92-4.55-8.06-8.69-14-10.67-3.33-1.11-5.52-4-8.18-6.13A6.7,6.7,0,0,0,99.11,14.6Z"/><path class="cls-10" d="M123.89,30.34a11.62,11.62,0,0,1-2.51-2.75,11,11,0,0,0,1.34,3.11l1.32-.26Z"/><path class="cls-10" d="M135.15,40.29A61.85,61.85,0,0,0,141.64,45,22.3,22.3,0,0,0,135.15,40.29Z"/><path class="cls-10" d="M132,38.16a27.74,27.74,0,0,1,3.16,2.13A22.3,22.3,0,0,1,141.64,45a19.17,19.17,0,0,0,1.76.87l.44-.45c-6.61-5-13.26-9.93-19.8-15l-1.32.26C124.65,33.83,128,35.91,132,38.16Z"/><path class="cls-10" d="M142.36,47h0l.47-.48A16.36,16.36,0,0,0,141.64,45a61.85,61.85,0,0,1-6.49-4.74c-.5-.25-1-.49-1.5-.69a36.33,36.33,0,0,1-12-8.68c-.67.13-1.35.25-2,.39l1.43,1.77C126.73,40.09,136.4,40.61,142.36,47Z"/><path class="cls-11" d="M118.55,20.84C116.86,11.07,119.67,5,127.4,1.57h0A61.59,61.59,0,0,0,97,8.4C104.07,11.92,112.62,12.61,118.55,20.84Z"/><path class="cls-11" d="M104.66,13.43c4.62,1.39,9.29,2.49,11.23,7.75.51,1.41,1.52,2.41,3.11,1.37,1.11-.74,2.83-2,2.12-3.14-5.39-8.69,2.5-12.51,6.28-17.84-7.73,3.45-10.54,9.5-8.85,19.27C112.62,12.61,104.07,11.92,97,8.4,98.37,11.83,101.67,12.52,104.66,13.43Z"/><path class="cls-12" d="M182.22,88.77c4.28-1.38-.09-2.81.37-4.25-.61,1.06-.63,2.31-1.39,3.12q-1.92,2-3.59,4.16A10.67,10.67,0,0,1,182.22,88.77Z"/><path class="cls-12" d="M172.39,105.67a3.57,3.57,0,0,1-.93-2.12,30.27,30.27,0,0,0-.82,3.53,5.72,5.72,0,0,1-1.27,2.45c3.18-2.08,6.92-2.81,10.18-3.79C177.48,105.23,175,108.48,172.39,105.67Z"/><path class="cls-12" d="M188,117.35c3.16.92,5.79,3.61,8.43,3.8A17.1,17.1,0,0,0,188,117.35Z"/><path class="cls-12" d="M230.09,129l-.1-.09c-4.73,6.28-9.17,8.77-14.66,6.35a18.91,18.91,0,0,1,1.8,1.44.36.36,0,0,1,0-.07C222.85,136.41,227.34,134.18,230.09,129Z"/><path class="cls-12" d="M201,134.82c-4.55,6.05-13.73,5.13-19,2.5-4.63-2.3-7.69-7-9.55-11.3-1.15-2.66,5.31-2.72,7.31-5.48a6.2,6.2,0,0,1,2.06-1.5,5.06,5.06,0,0,1,.41-.9,8.21,8.21,0,0,1,1.86-.81A21.23,21.23,0,0,0,173.79,122a4.49,4.49,0,0,1-2.65.58c-3,.09-5.46-.95-6.87-3.68s.37-4.67,2-6.61c-2.48,1.7-5.36,2.85-6.85,2.5-3.92-.91-8.35-7-8.26-11.69a15.29,15.29,0,0,1,.95-5.05c-1.28,1.56-2.64,3-3.9,4.43-4.11,4.62-8.39-2.9-12.82-4.43a9,9,0,0,1-1.22-.65c-9.23-4.93-9.77-5.75-6.09-14.84-.95,1.89-2,3.74-2.85,5.66-1,2.29-2.51,3.7-5.28,3.45-8.91-.83-17.67-2-25.35-7.84,4.29,5,9.71,7.16,15.74,8,13.79,1.87,25.81,7.73,36.78,16a168.53,168.53,0,0,1,36.29,37.3c1,1.46,1.8,3.87,4.15,2.08-1.8-.84-3.14-2.09-2.84-4.32.23-1.67,1.82-2.14,3.17-1.84,6.18,1.36,10.29-2.23,14.68-5.61a14,14,0,0,1,2.23-1.39,27,27,0,0,0-3.2.9C201.39,134.94,201.2,134.87,201,134.82Z"/><path class="cls-12" d="M157.14,82a28.32,28.32,0,0,1-.95-7.43c.14,2-.29,4.15.41,6.15a14.46,14.46,0,0,1,.68,7.44A10.55,10.55,0,0,0,157.14,82Z"/><path class="cls-12" d="M173,99.36c.54-1,1.07-2.11,1.63-3.16A33.67,33.67,0,0,0,173,99.36Z"/><path class="cls-12" d="M172,101.14a4.06,4.06,0,0,0-.57,2.41A30.75,30.75,0,0,1,173,99.36C172.69,100,172.37,100.56,172,101.14Z"/><path class="cls-12" d="M169.37,109.53a13.64,13.64,0,0,0-3,2.69l-.07.09A15.35,15.35,0,0,0,169.37,109.53Z"/><path class="cls-12" d="M134.16,97.42a9,9,0,0,0,1.22.65c4.43,1.53,8.71,9.05,12.82,4.43,1.26-1.4,2.62-2.87,3.9-4.43a15.75,15.75,0,0,1,2.1-3.9,18,18,0,0,0,3.08-6,14.46,14.46,0,0,0-.68-7.44c-.7-2-.27-4.1-.41-6.15a28.32,28.32,0,0,0,.95,7.43,10.55,10.55,0,0,1,.14,6.16c-.65,3.77-2.77,7-5.18,9.94a15.29,15.29,0,0,0-.95,5.05c-.09,4.69,4.34,10.78,8.26,11.69,1.49.35,4.37-.8,6.85-2.5l.07-.09a13.64,13.64,0,0,1,3-2.69,5.72,5.72,0,0,0,1.27-2.45,30.27,30.27,0,0,1,.82-3.53,4.06,4.06,0,0,1,.57-2.41c.34-.58.66-1.17,1-1.78a33.67,33.67,0,0,1,1.63-3.16,21.28,21.28,0,0,1,3-4.4q1.66-2.13,3.59-4.16c.76-.81.78-2.06,1.39-3.12-.46,1.44,3.91,2.87-.37,4.25a10.67,10.67,0,0,0-4.61,3,42.51,42.51,0,0,0-3,4.4c-.56,1-1.09,2.11-1.63,3.16a30.75,30.75,0,0,0-1.54,4.19,3.57,3.57,0,0,0,.93,2.12c2.56,2.81,5.09-.44,7.16.07-3.26,1-7,1.71-10.18,3.79a15.35,15.35,0,0,1-3.11,2.78c-1.62,1.94-3.42,3.84-2,6.61s3.87,3.77,6.87,3.68a4.49,4.49,0,0,0,2.65-.58,21.23,21.23,0,0,1,10.27-4.69,6.67,6.67,0,0,1,4,0,17.1,17.1,0,0,1,8.43,3.8c-2.64-.19-5.27-2.88-8.43-3.8a15,15,0,0,0-4,0,8.21,8.21,0,0,0-1.86.81,5.06,5.06,0,0,0-.41.9,8.1,8.1,0,0,0,.7-.42,13.64,13.64,0,0,1,9.79,2.19c3.94,2.6,5.32,2.47,13.05,0-7.11-.73-12.05-3.24-17.24-4.79-4.41-1.33-9,.15-12.83,3.25-3,2.47-6.28,3.17-9.17.06-3.5-3.77,1.27-4.79,2.59-7,1.89-3.12,5.15-3.46,8.18-4.37,3.25-1,6.68-1.69,9.65-6-3.93,1.2-6.69,2.11-9.49,2.86-1.21.32-2.59,1.65-3.75.21s-.45-2.94.24-4.48c2.83-6.31,7.85-10.34,16-14-8.23.53-4.31-5-7.06-7.72-1.58,10.65-11.81,16.35-13,27.15-.43,4.06-5.55,7-9.58,7.48-3.84.5-8.84-8.13-6.49-12.38,5.83-10.53,4.89-21.53,4.12-33.13-4.59,3.44-3.32,8.58-2.12,12.14,3.34,9.94-5.35,14.86-8.1,22.17-.41,1.08-1.57.44-2.33-.07-5.12-3.42-10.62-6.23-15.82-9.45-4.49-2.78-.06-7.49-.49-11.34-.18.41-.39.8-.6,1.2C124.39,91.67,124.93,92.49,134.16,97.42Z"/><path class="cls-12" d="M230.61,129.48h0l-.52-.48c-2.75,5.18-7.24,7.41-12.93,7.63a.36.36,0,0,0,0,.07c.37.33.73.62,1.1,1h0C224.92,138.82,228.19,134.78,230.61,129.48Z"/><path class="cls-12" d="M188,117.35a6.67,6.67,0,0,0-4,0A15,15,0,0,1,188,117.35Z"/><path class="cls-12" d="M154.2,94.17a15.75,15.75,0,0,0-2.1,3.9c2.41-2.92,4.53-6.17,5.18-9.94A18,18,0,0,1,154.2,94.17Z"/><path class="cls-12" d="M183.4,145.16a168.53,168.53,0,0,0-36.29-37.3c-11-8.3-23-14.16-36.78-16-6-.82-11.45-3-15.74-8,7.68,5.79,16.44,7,25.35,7.84,2.77.25,4.24-1.16,5.28-3.45.88-1.92,1.9-3.77,2.85-5.66.11-.26.21-.52.33-.8-4.58,9.33-12.24,8.42-20.78,6.37-5.17-1.25-9.46-4.09-14.94-7.13-.47.35-1,.69-1.41,1.06,4.64,7,10.49,10.56,17.35,11.29,18.7,2,33.14,11.73,46.79,23.52a156.53,156.53,0,0,1,29.25,33.29,18.61,18.61,0,0,0,2.9,2.69c.2-2.3.34-3.85.48-5.41l-.49-.22C185.2,149,184.43,146.62,183.4,145.16Z"/><path class="cls-12" d="M230,128.91l-.69-.64c-6.06,7-9.59,8.17-17.49,3.68-4.47-2.53-6.68,1.6-10.06,1.76h0a11.33,11.33,0,0,1-.75,1.11c.2.05.39.12.59.16a27,27,0,0,1,3.2-.9c3.5-1.75,7-1.29,10.54,1.18C220.82,137.68,225.26,135.19,230,128.91Z"/><path class="cls-12" d="M174.63,96.2a42.51,42.51,0,0,1,3-4.4A21.28,21.28,0,0,0,174.63,96.2Z"/><path class="cls-12" d="M128.67,81.38v-.11h0c-.08.18-.18.34-.26.51s-.22.54-.33.8C128.28,82.18,128.49,81.79,128.67,81.38Z"/><path class="cls-12" d="M89.62,79.37c.53,1,1.08,1.85,1.65,2.71.46-.37.94-.71,1.41-1.06C91.7,80.47,90.69,79.92,89.62,79.37Z"/><path class="cls-12" d="M215.33,135.26l-.16,0a15.87,15.87,0,0,0-10.38-1.13,14,14,0,0,0-2.23,1.39c-4.39,3.38-8.5,7-14.68,5.61-1.35-.3-2.94.17-3.17,1.84-.3,2.23,1,3.48,2.84,4.32.09-.08.18-.13.28-.22-.7-1.41-1.42-2.89-2.53-5.14,6.15,2.44,11.53,1.76,15.08-2.6,5.35-6.59,10.78-5.55,16.64-2.29,0-.1.06-.19.11-.29A18.91,18.91,0,0,0,215.33,135.26Z"/><path class="cls-12" d="M188,147.46l-.21-.44c-.1.09-.19.14-.28.22Z"/><path class="cls-12" d="M204.79,134.08a15.87,15.87,0,0,1,10.38,1.13l.16,0C211.79,132.79,208.29,132.33,204.79,134.08Z"/><path class="cls-12" d="M218.23,137.69c-.37-.37-.73-.66-1.1-1,0,.1-.07.19-.11.29l1.21.7Z"/><path class="cls-13" d="M108,127.57a1.23,1.23,0,0,0,0,.43c3.45-8.09,5.15-8.83,12.68-5.39,1.84.84,3.71,1.65,5.56,2.47-4.93-3-10.64-4.92-16.19-7.08C111.32,119.6,110.28,122.1,108,127.57Z"/><path class="cls-13" d="M76.22,107.14c7.73,4.44,16.46,5.49,24.89,7.58l2.73.7c-4.91-2.31-9.38-5.19-12.7-9.6a19.82,19.82,0,0,0,1.41,2.65c1.61,2.46-1.51,2.78-3.19,2.65a32.13,32.13,0,0,1-17.94-7.32l-.08.12A21.84,21.84,0,0,0,76.22,107.14Z"/><path class="cls-13" d="M169.36,158.37c-1-5.4-7.76-7.85-6.83-13.6-2.17,4.9-5.05,2.68-7.93-.24-5.35-5.41-5.64-8.51-1.19-12.92-6.43,6.64-11.37.46-16.7-1.84-5.15-2.22-6.77-5.9-3.91-11.06.23-.42.33-.61.47-.49.69.61.07-.75-.37.21a5,5,0,0,0-1.52,3.57c-.2,3-1.9,4.29-4,3.6,1.1.49,2.19,1,3.26,1.49,8.65,4.19,17.35,8.44,22.95,16.94a20.66,20.66,0,0,0,7,6.47c9.17,5.24,10.25,11.44,3.47,19.64a4,4,0,0,1,1.84,2.09h0l.11-.07C168.35,167.92,170.31,163.76,169.36,158.37Z"/><path class="cls-13" d="M85.4,93.82a14.41,14.41,0,0,1,1,1.24l-.06-.21A1.57,1.57,0,0,0,85.4,93.82Z"/><path class="cls-13" d="M71.34,103.92l.08-.12c-.21-.18-.44-.34-.64-.52A4.14,4.14,0,0,0,71.34,103.92Z"/><path class="cls-13" d="M92.41,110c-7.92-.6-14.53-2.92-20.19-7.41-.28.41-.53.84-.8,1.26a32.13,32.13,0,0,0,17.94,7.32c1.68.13,4.8-.19,3.19-2.65a19.82,19.82,0,0,1-1.41-2.65,27.21,27.21,0,0,1-4.76-10.76,14.41,14.41,0,0,0-1-1.24,1.57,1.57,0,0,1,.92,1l.06.21c2.29,3.2,3.13,7.15,4.76,10.76,3.32,4.41,7.79,7.29,12.7,9.6,3.31.86,5.25,1.53,6.14,2.58,5.55,2.16,11.26,4.12,16.19,7.08l1.16.52c2.15.69,3.85-.61,4-3.6a5,5,0,0,1,1.52-3.57c.44-1,1.06.4.37-.21-.14-.12-.24.07-.47.49-2.86,5.16-1.24,8.84,3.91,11.06,5.33,2.3,10.27,8.48,16.7,1.84-4.45,4.41-4.16,7.51,1.19,12.92,2.88,2.92,5.76,5.14,7.93.24-.93,5.75,5.88,8.2,6.83,13.6s-1,9.55-3.36,13.79c6.87-3.93,7.4-14.31,1.05-21.56-4-4.61-4-4.61-.3-9.42-5.11-1.52-4.84,3.76-7.15,5.39-8.62-6.94-8.62-6.94-1.35-17.55a2.11,2.11,0,0,0-3.08-.14c-7.64,8.44-13.89,1.23-20.28-1.95-3.46-1.73-2.51-4.88-.86-7.69,1.08-1.84,3.91-2.53,3.55-5.95-5.41,2.07-7.86,5.82-7.92,11.43-8-2.22-14.19-7.49-21.55-9.52-10-2.74-16.46-8-19.29-18.14-.86-3-3.45-5.17-6.32-7-.1.1-.19.2-.29.29C87.26,95.88,87.46,103.82,92.41,110Z"/><path class="cls-13" d="M97.76,115.69c12.94,2.47,12.94,2.42,7.73,14.22a17.85,17.85,0,0,0-.58,1.82c3,.76,3.7-1,4.47-3.08,2.88-7.79,3.85-8.18,11.25-4.58,5.75,2.81,11.48,5.64,17.16,8.58A38.62,38.62,0,0,1,151.33,144c2.88,3.86,5.63,8.18,11.4,9.16,4.22.71,4.25,5.17,4,8.39-.25,2.78-1,5.93-3.56,7.93a10.5,10.5,0,0,0,.92.69c6.78-8.2,5.7-14.4-3.47-19.64a20.66,20.66,0,0,1-7-6.47c-5.6-8.5-14.3-12.75-22.95-16.94-1.07-.52-2.16-1-3.26-1.49a4.89,4.89,0,0,1-1.11-.5l0,0c-1.85-.82-3.72-1.63-5.56-2.47-7.53-3.44-9.23-2.7-12.68,5.39a1.23,1.23,0,0,1,0-.43c2.32-5.47,3.36-8,2-9.57-2.08-.81-4.14-1.65-6.14-2.58l-2.73-.7c-8.43-2.09-17.16-3.14-24.89-7.58a21.84,21.84,0,0,1-4.88-3.22l-.77,1.2a23.26,23.26,0,0,0,3.93,2.8C81.7,112.22,89.67,114.15,97.76,115.69Z"/><path class="cls-13" d="M91.14,105.82c-1.63-3.61-2.47-7.56-4.76-10.76A27.21,27.21,0,0,0,91.14,105.82Z"/><path class="cls-13" d="M103.84,115.42c2,.93,4.06,1.77,6.14,2.58C109.09,117,107.15,116.28,103.84,115.42Z"/><path class="cls-13" d="M127.33,125.6l-1.16-.52,0,0A4.89,4.89,0,0,0,127.33,125.6Z"/><path class="cls-13" d="M70.78,103.28c.2.18.43.34.64.52.27-.42.52-.85.8-1.26a36.52,36.52,0,0,1-4.72-4.47c.27,3.26,1.1,5.22,3.07,7.05l.77-1.2A4.14,4.14,0,0,1,70.78,103.28Z"/><path class="cls-13" d="M82.21,90.34c.1-.09.19-.19.29-.29L81,89.12A14.18,14.18,0,0,1,82.21,90.34Z"/><path class="cls-13" d="M164.05,170.14c-.19.22-.36.44-.55.67l-.08,0a2.66,2.66,0,0,0,2.47,1.38A4,4,0,0,0,164.05,170.14Z"/><path class="cls-13" d="M164.05,170.14a10.5,10.5,0,0,1-.92-.69,2.91,2.91,0,0,0,.29,1.4l.08,0C163.69,170.58,163.86,170.36,164.05,170.14Z"/><path class="cls-14" d="M46.31,76.89l.07-.09c-.1-.38-.21-.75-.32-1.11C46.15,76.08,46.23,76.49,46.31,76.89Z"/><path class="cls-14" d="M70,115a26.61,26.61,0,0,1-3.82-2c-.15.32-.32.64-.48,1A9.11,9.11,0,0,0,70,115Z"/><path class="cls-14" d="M47.44,83a25.93,25.93,0,0,0-1.06-6.22l-.07.09C46.69,78.89,47,81,47.44,83Z"/><path class="cls-14" d="M55.18,120.7c-.51-.33-1.07-.72-1.65-1.07a7.55,7.55,0,0,1-1.6-1.26A11.11,11.11,0,0,0,55.18,120.7Z"/><path class="cls-14" d="M51.35,117.69c.09.13.2.25.3.38C51.54,117.94,51.44,117.82,51.35,117.69Z"/><path class="cls-14" d="M58.87,105.54c-1.52-2.53-2.81-5.19-4.11-7.85.11,1.82-.67,3.84-1,5.63-.57,3.47-2.24,6.76-6.54,6.75-3.77,0-6.75,1-8.38,4.64,1.13.07,1.14-1.12,1.73-1.65,4.85-4.36,7.49-3.81,9.6,2.44a8.2,8.2,0,0,0,.78,1.63,5.59,5.59,0,0,1-.45-4.5c.82-2.79,1.65-6.18,4.85-7,3-.74,3.89,2.52,5.49,4.36a16.42,16.42,0,0,0,4.82,4c.16-.32.33-.64.48-1A22.65,22.65,0,0,1,58.87,105.54Z"/><path class="cls-14" d="M52.81,94c0,.15,0,.3.06.44l.4.3a52.07,52.07,0,0,0-4.78-7.85A18,18,0,0,0,52.81,94Z"/><path class="cls-14" d="M46.06,75.69c-.4-1.37-.8-2.67-1.08-3.87a26.55,26.55,0,0,1,1.08,3.87c.11.36.22.73.32,1.11l1-1.2a49.49,49.49,0,0,0-1.87-8.67c-.18-.53-.89-.88-2.88-2.73,1.14,5,1.57,9.85,2.35,14.37.44-.57.91-1.12,1.36-1.68C46.23,76.49,46.15,76.08,46.06,75.69Z"/><path class="cls-14" d="M46.06,75.69A26.55,26.55,0,0,0,45,71.82C45.26,73,45.66,74.32,46.06,75.69Z"/><path class="cls-14" d="M70,115a10.44,10.44,0,0,0,3.51-.65h0a35.75,35.75,0,0,1-6.52-3c-.28.54-.55,1.09-.82,1.64A26.61,26.61,0,0,0,70,115Z"/><path class="cls-14" d="M48.49,86.87c-.17-.23-.33-.47-.51-.69a4.17,4.17,0,0,1-.52-2.64c0-.18,0-.35,0-.52-.45-2.06-.75-4.13-1.13-6.13-.45.56-.92,1.11-1.36,1.68,1,5.58,2.48,10.7,6.58,15.11a7.9,7.9,0,0,1,1.34.74c0-.14,0-.29-.06-.44A18,18,0,0,1,48.49,86.87Z"/><path class="cls-14" d="M48,86.18c.18.22.34.46.51.69A30.45,30.45,0,0,1,47.44,83c0,.17,0,.34,0,.52A4.17,4.17,0,0,0,48,86.18Z"/><path class="cls-14" d="M66.18,113c.27-.55.54-1.1.82-1.64A19.5,19.5,0,0,1,56.9,95.79c0-.22,0-.56-.17-.65-7.39-4.82-8.29-12.22-9.38-19.54l-1,1.2A25.93,25.93,0,0,1,47.44,83a30.45,30.45,0,0,0,1.05,3.85,52.07,52.07,0,0,1,4.78,7.85,4,4,0,0,1,1.49,3c1.3,2.66,2.59,5.32,4.11,7.85A22.65,22.65,0,0,0,66.18,113Z"/><path class="cls-14" d="M70,115a9.11,9.11,0,0,1-4.3-1c-.25.54-.49,1.1-.74,1.65,1.13.45,2.29.83,3.44,1.21,1.43.47,3.36.88,4.4-.4-.24-.22-.49-.42-.73-.63C71.37,115.57,70.68,115.3,70,115Z"/><path class="cls-14" d="M62.28,122.33l-.3.84c.54,0,1.05,0,1.63,0C63.17,122.83,62.73,122.57,62.28,122.33Z"/><path class="cls-14" d="M51.93,118.37l-.28-.3Z"/><path class="cls-14" d="M51,117.13a4.83,4.83,0,0,0,.36.56A6.65,6.65,0,0,1,51,117.13Z"/><path class="cls-14" d="M55.18,120.7a4.75,4.75,0,0,0,1.54.77Z"/><path class="cls-14" d="M53.7,118.1c-2.45-2.38-1.57-10.19,1.53-11.29,2.06-.74,2.65,1.08,3.16,2.64,1.14,3.43,3.72,5,6.57,6.18.25-.55.49-1.11.74-1.65a16.42,16.42,0,0,1-4.82-4c-1.6-1.84-2.49-5.1-5.49-4.36-3.2.78-4,4.17-4.85,7a5.59,5.59,0,0,0,.45,4.5,6.65,6.65,0,0,0,.36.56c.09.13.19.25.3.38l.28.3a7.55,7.55,0,0,0,1.6,1.26c.58.35,1.14.74,1.65,1.07l1.54.77a4.75,4.75,0,0,1-1.54-.77,11.11,11.11,0,0,1-3.25-2.33l-.28-.3c-.1-.13-.21-.25-.3-.38a4.83,4.83,0,0,1-.36-.56,8.2,8.2,0,0,1-.78-1.63c-2.11-6.25-4.75-6.8-9.6-2.44-.59.53-.6,1.72-1.73,1.65,1.63-3.65,4.61-4.65,8.38-4.64,4.3,0,6-3.28,6.54-6.75.29-1.79,1.07-3.81,1-5.63-.49-1-1-2-1.49-3l-.4-.3a5.72,5.72,0,0,1-.22,3.15c1.26,6.52-1.71,10.32-9,11.21-2.54.3-4.62,1.3-5.45,3.49-.75,2-4.15,4.44-1,6.29,3.46,2,2.85-2.19,3.95-3.74,1.23-1.75,2.63-3.13,5-3.09,2.75,0,2.22,2.27,2.79,3.89,1.9,5.34,5.93,7.73,13,7.55l.3-.84C59.21,120.72,56,120.31,53.7,118.1Z"/><path class="cls-14" d="M73.51,114.37h0A10.44,10.44,0,0,1,70,115c.68.28,1.37.55,2.07.79.24.21.49.41.73.63A3.68,3.68,0,0,0,73.51,114.37Z"/><path class="cls-14" d="M52.87,94.42a7.9,7.9,0,0,0-1.34-.74,23.86,23.86,0,0,1,1.12,3.89A5.72,5.72,0,0,0,52.87,94.42Z"/><path class="cls-14" d="M53.27,94.72c.5,1,1,2,1.49,3A4,4,0,0,0,53.27,94.72Z"/><path class="cls-15" d="M69.49,53.06c-1.28.23-1.33,1.12-1.14,2,.79-.61,1.59-1.21,2.39-1.8A1.87,1.87,0,0,0,69.49,53.06Z"/><path class="cls-15" d="M103.45,77.18c.65-.76,1-1,.92-1.1a12.46,12.46,0,0,0-1-2.12c-.69.38-1.37.79-2,1.19C102,75.86,102.73,76.55,103.45,77.18Z"/><path class="cls-15" d="M68.53,55.76c.85,2.83,1.67,5.68,2.73,8.43.68,1.73,3.37,3.21.79,5.21-2,1.54-4.36,1.18-6.49.1s-3.17-4-6.78-4.47c.37,9.1,14.44,9.28,11.39,20,3.15-7.53,4.43-16.2,13-18.75,8.39-2.5,13.14,3.77,18.16,8.84.68-.4,1.36-.81,2-1.19C101.39,70.47,98,68,96,64.83s4.8-7.7,1.19-13.45c.76,9.26-4.3,11.25-11.47,10.69a3,3,0,0,0-1.37.06C77,65.38,71.65,65.25,71.84,55a2.06,2.06,0,0,0-1.1-1.77c-.8.59-1.6,1.19-2.39,1.8C68.4,55.3,68.46,55.54,68.53,55.76Z"/><path class="cls-8" d="M176.85,124.37c-1.86.85-1.87,2.11-1,3.91a16.43,16.43,0,0,0,17.71,8.89,25.69,25.69,0,0,0,6.38-2.62c-6.63-1.88-11.36-6.81-16.56-10.94a4.27,4.27,0,0,1-1.81-3.73A12.18,12.18,0,0,1,176.85,124.37Z"/><path class="cls-8" d="M183.42,123.61c5.2,4.13,9.93,9.06,16.56,10.94.58-.29,1.17-.58,1.77-.84h0c-7.37-3.81-15.32-6.9-19.26-15.09l-.88,1.26A4.27,4.27,0,0,0,183.42,123.61Z"/><path class="cls-8" d="M193.6,137.17a16.43,16.43,0,0,1-17.71-8.89c-.91-1.8-.9-3.06,1-3.91a12.18,12.18,0,0,0,4.76-4.49,4.52,4.52,0,0,1,.18-.84,6.2,6.2,0,0,0-2.06,1.5c-2,2.76-8.46,2.82-7.31,5.48,1.86,4.28,4.92,9,9.55,11.3,5.3,2.63,14.48,3.55,19-2.5-.35-.07-.68-.17-1-.27A25.69,25.69,0,0,1,193.6,137.17Z"/><path class="cls-8" d="M181.61,119.88l.88-1.26a8.1,8.1,0,0,1-.7.42A4.52,4.52,0,0,0,181.61,119.88Z"/><path class="cls-8" d="M201,134.82a11.33,11.33,0,0,0,.75-1.11c-.6.26-1.19.55-1.77.84C200.32,134.65,200.65,134.75,201,134.82Z"/><path class="cls-16" d="M140.73,90.83a49.19,49.19,0,0,0,2.7-16.48c.07-4.06-.15-8.15-.14-12.22h-.12C143.09,71.65,143,81.22,140.73,90.83Z"/><path class="cls-16" d="M144.47,46.34c-.28-.1-.54-.23-.82-.34a1.64,1.64,0,0,1-.67.71c.21.3.43.59.61.9-.33,4.83-.37,9.67-.42,14.53h.12c0-5.32.42-10.6,2.51-15.74A11.48,11.48,0,0,1,144.47,46.34Z"/><path class="cls-16" d="M138.4,91.6c-.36,1.05-1.51,2.74.74,3.26,1.92.45,2.84-.53,3.33-2.43a86.07,86.07,0,0,0,2.92-20.14c.06-3.36-.34-6.82-.5-10.28-.54,0-1.07.07-1.6.12,0,4.07.21,8.16.14,12.22a49.19,49.19,0,0,1-2.7,16.48c2.27-9.61,2.36-19.18,2.44-28.69l-1.9.2C141.22,72.17,141.67,82.05,138.4,91.6Z"/><path class="cls-16" d="M143.59,47.61c-.18-.31-.4-.6-.61-.9a1.92,1.92,0,0,1-.62.25,88.86,88.86,0,0,0-1.09,15.38l1.9-.2C143.22,57.28,143.26,52.44,143.59,47.61Z"/><path class="cls-16" d="M144.47,46.34a11.48,11.48,0,0,0,1.33,0c-2.09,5.14-2.5,10.42-2.51,15.74.53-.05,1.06-.08,1.6-.12-.33-6.92.32-13.84,7.61-20-4.87.6-5.81,4-8.66,3.44a2.73,2.73,0,0,1-.19.55C143.93,46.11,144.19,46.24,144.47,46.34Z"/><path class="cls-16" d="M143.65,46l-.25-.1-.57.58.15.23A1.64,1.64,0,0,0,143.65,46Z"/><path class="cls-16" d="M142.83,46.48l-.47.48h0a1.92,1.92,0,0,0,.62-.25Z"/><path class="cls-16" d="M143.84,45.45l-.44.45.25.1A2.73,2.73,0,0,0,143.84,45.45Z"/><path class="cls-17" d="M107.32,29c-2.38-1.54-3.58-6.9-6.2-5-2.82,2.07,1.28,4.84,2.9,7a6.59,6.59,0,0,1,1.21,4.2c1.19-.4,2.39-.76,3.6-1.13C109.34,32.1,109.25,30.27,107.32,29Z"/><path class="cls-17" d="M110,44.79c3.82,1.39,4,4.83,2.52,8.64-2,5.08-3.2,10.37.64,15.42-3.18-11.12,8.56-19.43,5.44-30.4a4.49,4.49,0,0,0-1.3.33c-2,1.38-.14,6.49-3.45,5.38s-6.91-4.19-5.32-9c.11-.34.21-.68.3-1-1.21.37-2.41.73-3.6,1.13,0,.34,0,.67,0,1C105,40.17,105.44,43.15,110,44.79Z"/><path class="cls-8" d="M230.6,128.33c3.84-5,5.49-10.25,2.12-16.44-1.92-3.53-.79-7.17.66-10.61l0-.06,0,0a24.45,24.45,0,0,1-1.07,2.42c-1.43,2.79-2.4,5.47-.4,8.38,4,5.91,2.61,11.22-1.37,16.23C230.58,128.24,230.58,128.3,230.6,128.33Z"/><path class="cls-8" d="M233.28,89a18.82,18.82,0,0,0-1.09-2A18,18,0,0,1,233.28,89Z"/><path class="cls-8" d="M233.36,89.15a15.18,15.18,0,0,1,0,12l0,0A14.45,14.45,0,0,0,233.36,89.15Z"/><path class="cls-8" d="M230.55,128.22c4-5,5.4-10.32,1.37-16.23-2-2.91-1-5.59.4-8.38a24.45,24.45,0,0,0,1.07-2.42c-.3-.41-.6-.83-.92-1.25a17.09,17.09,0,0,1-4,6.65c-1.25,1.36-.32,3,.76,4.35,4.8,5.76,4.31,11.54.06,17.33C229.91,128.05,230.33,128,230.55,128.22Z"/><path class="cls-8" d="M233.38,101.28c-1.45,3.44-2.58,7.08-.66,10.61,3.37,6.19,1.72,11.44-2.12,16.44.16.22.18.58,0,1.15,5.37-5.27,7.61-11,3.5-18.22-1.68-2.94-.8-5.91.18-8.83-.28-.41-.59-.81-.88-1.21Z"/><path class="cls-8" d="M233.36,89.15c0-.06-.05-.13-.08-.19a18,18,0,0,0-1.09-2,18.82,18.82,0,0,1,1.09,2c0,.07.05.13.08.19a14.45,14.45,0,0,1,0,12.07c.29.4.6.8.88,1.21.28-.81.56-1.62.8-2.43,2.49-8.44.95-12.62-7.75-18.34,4.4,6.41,6.93,12.39,5.13,18.28.32.42.62.84.92,1.25A15.18,15.18,0,0,0,233.36,89.15Z"/><path class="cls-8" d="M233.36,89.15c0-.06-.05-.12-.08-.19S233.33,89.09,233.36,89.15Z"/><path class="cls-8" d="M230.6,128.33s0-.09,0-.11c-.17.22-.35.45-.54.67l0,0,.1.09,0,0Z"/><path class="cls-8" d="M230,128.89c.19-.22.37-.45.54-.67-.22-.19-.64-.17-1.25.05l.69.64Z"/><path class="cls-8" d="M230.6,128.33l-.48.63,0,0,.52.48h0C230.78,128.91,230.76,128.55,230.6,128.33Z"/><path class="cls-5" d="M207.31,124.18c4.7-4.94,5.75-10.57,2.05-15.93-2.68-3.89-1.73-6.52.48-9.82,2.5-3.72,4.6-7.7,6.87-11.57l-1.53-1.11c-3.41,4.73-7,9.37-10.15,14.25-.76,1.15-1,3.52-.32,4.58C208.64,110.72,209.7,117.13,207.31,124.18Z"/><path class="cls-12" d="M129.58,65.18c-.08.27-.15.54-.25.81-.82,2.24-1.29,4.67,0,6.62a7.3,7.3,0,0,1,.37.66A64.26,64.26,0,0,0,129.58,65.18Z"/><path class="cls-12" d="M128.62,81a40.25,40.25,0,0,0,1.1-7.71,7.3,7.3,0,0,0-.37-.66c-1.31-2-.84-4.38,0-6.62.1-.27.17-.54.25-.81l-.09-1-1.2.27C128.53,70.11,127.7,75.64,128.62,81Z"/><path class="cls-12" d="M129.49,64.18l.09,1a10.47,10.47,0,0,0,.27-1.07Z"/><path class="cls-12" d="M128.67,81.27l.07,0c0-.11.12-.22.17-.33,1.24-2.5,2.3-4.88.81-7.65a40.25,40.25,0,0,1-1.1,7.71c0,.1,0,.19,0,.29Z"/><path class="cls-12" d="M129.58,65.18a64.26,64.26,0,0,1,.14,8.09c1.49,2.77.43,5.15-.81,7.65,0,.11-.12.22-.17.33.2-.07.44-.12.54-.26,2.4-3.46,2.79-10.42,1.43-17l-.86.17A10.47,10.47,0,0,1,129.58,65.18Z"/><path class="cls-12" d="M129.85,64.11a12.12,12.12,0,0,0,.22-2.86,33.07,33.07,0,0,0-1.28-3.67c.26,2.2.51,4.4.7,6.6Z"/><path class="cls-12" d="M129.85,64.11l.86-.17c-.18-.9-.39-1.8-.64-2.69A12.12,12.12,0,0,1,129.85,64.11Z"/><path class="cls-12" d="M128.79,57.58A19,19,0,0,0,124,50.46a26.1,26.1,0,0,1,4.25,14l1.2-.27C129.3,62,129.05,59.78,128.79,57.58Z"/><path class="cls-18" d="M82.75,195.51l-.2-.09c-1.67-4.89-2.38-9.55,1.37-13.15A5.19,5.19,0,0,1,81.64,180c-2.53-4.17-6.51-6.34-11-7.73a51.39,51.39,0,0,0-13-2.12,89.34,89.34,0,0,0,8.1,27.57,47,47,0,0,0,9.44-1.07c2.16-.45,4.4-1.64,6.38,0C81.59,195.88,82,195.46,82.75,195.51Z"/><path class="cls-18" d="M38.31,171.15c-7.49.72-9.18,6.41-3.94,12.07,8.86,9.6,19.3,14.65,31.43,14.53a89.34,89.34,0,0,1-8.1-27.57A139.79,139.79,0,0,0,38.31,171.15Z"/><path class="cls-18" d="M82.55,195.42l.2.09a2.47,2.47,0,0,1,.44,0h0c.79-4.76-2.47-10.73,4.12-13.74h0a3.65,3.65,0,0,1-3.39.46C80.17,185.87,80.88,190.53,82.55,195.42Z"/><path class="cls-18" d="M70.67,172.3c4.46,1.39,8.44,3.56,11,7.73a5.19,5.19,0,0,0,2.28,2.24,9.81,9.81,0,0,1,1-.82,1.24,1.24,0,0,1-.75-.42C77.91,170.56,68.77,168,57.56,169c0,.41.09.83.14,1.23A51.39,51.39,0,0,1,70.67,172.3Z"/><path class="cls-18" d="M81.62,197a1.4,1.4,0,0,1,0-.29c-2-1.68-4.22-.49-6.38,0a47,47,0,0,1-9.44,1.07c.31.64.64,1.26,1,1.89a46.13,46.13,0,0,0,12.8-2.58A7,7,0,0,1,81.62,197Z"/><path class="cls-18" d="M34.37,183.22c-5.24-5.66-3.55-11.35,3.94-12.07a139.79,139.79,0,0,1,19.39-1c-.05-.4-.09-.82-.14-1.23-.59.05-1.18.1-1.78.17-6.16.71-12.46-1.79-18.94.09-3,.88-6.21,1-7,4.33-.82,3.51-.88,7.05,2.17,10.2,10.17,10.54,21.51,16.57,34.75,15.9-.33-.63-.66-1.25-1-1.89C53.67,197.87,43.23,192.82,34.37,183.22Z"/><path class="cls-18" d="M87.31,181.81h0c-.74-.17-1.73-.18-2.43-.36a9.81,9.81,0,0,0-1,.82A3.65,3.65,0,0,0,87.31,181.81Z"/><path class="cls-18" d="M81.62,196.72l.15.14,1.3-1.2-.32-.15C82,195.46,81.59,195.88,81.62,196.72Z"/><path class="cls-18" d="M83.19,195.55h0a2.47,2.47,0,0,0-.44,0l.32.15.12-.11Z"/><path class="cls-18" d="M81.62,197l.15-.15-.15-.14A1.4,1.4,0,0,0,81.62,197Z"/><path class="cls-19" d="M80.9,135.51c1.18,2.11.19,4-1.09,5.7a49.27,49.27,0,0,1-3.65,4.12c-2.18,2.31-2.65,4.59.06,7.32-1.78-3.49-.46-6,1.54-8.35,1.75-2.09,4-3.76,5-6.48,1.3-3.71,3.85-4.68,6.84-4.18a32.77,32.77,0,0,0-18.58.19,106.35,106.35,0,0,1-11.09,2.39c5.4-.82,10.86-1.45,16.17-2.68A4.31,4.31,0,0,1,80.9,135.51Z"/><path class="cls-19" d="M114.52,153.06c-2.35-1-4.24-1.67-4-4.26a2.84,2.84,0,0,1-2.87-1C109.12,150.16,111,152.33,114.52,153.06Z"/><path class="cls-19" d="M34.5,134.09a11.72,11.72,0,0,1,4.39-.4,6.12,6.12,0,0,1,2.47.62A8.53,8.53,0,0,0,34.5,134.09Z"/><path class="cls-19" d="M21,157.36a3.28,3.28,0,0,1,2.88.91A25.75,25.75,0,0,1,29.07,150C26.39,152.47,23.74,155,21,157.36Z"/><path class="cls-19" d="M23.3,134.79a8.18,8.18,0,0,0,9.64,0,6.86,6.86,0,0,1,1.3-.65,13.66,13.66,0,0,0-1.87.88A8.37,8.37,0,0,1,23.3,134.79Z"/><path class="cls-19" d="M54.85,137.07c-1.11.18-2.22.36-3.33.56-2.8.49-5.5.21-7.76-1.75a11.62,11.62,0,0,0-2.12-1.43,3.61,3.61,0,0,1,1.58,2c.61,1.82-.69,3.11-2,3.95a62.07,62.07,0,0,0-6.81,5,49.91,49.91,0,0,1,4.51-2.87A51.2,51.2,0,0,1,54.85,137.07Z"/><path class="cls-19" d="M110.53,148.8c-.25,2.59,1.64,3.27,4,4.26-3.54-.73-5.4-2.9-6.86-5.28a19.65,19.65,0,0,1-1.23-1.65c-4.61-6.34-10.35-10.53-16.84-12.49-3-.5-5.54.47-6.84,4.18-1,2.72-3.24,4.39-5,6.48-2,2.38-3.32,4.86-1.54,8.35-2.71-2.73-2.24-5-.06-7.32a49.27,49.27,0,0,0,3.65-4.12c1.28-1.72,2.27-3.59,1.09-5.7a4.31,4.31,0,0,0-4.81-2c-5.31,1.23-10.77,1.86-16.17,2.68l-1.38.23c-.09.53-.16,1.07-.25,1.6,2.67-.46,5.39-.8,8.19-1,3.38-.27,6.68-1.42,10-2,1.27-.2,2.87-.34,3.57,1.27S79.91,139,78.93,140c-1.44,1.48-3,2.85-4.38,4.38-3.22,3.58-1.9,10,2.42,12.12a2,2,0,0,0,2.52-.15,1.55,1.55,0,0,0-.3-2.38c-5-4.52-1.64-7.54,1.81-10.59a9,9,0,0,1,1.51-1.4c3-1.57.79-8.49,6.67-6.83s11.71,4.15,14.93,10.09c3.11,5.73,6.71,10.63,14.41,8.78.37-.09.66-.52,1.47-1.2-2.72-2.52-7.86.42-9.31-4h0Z"/><path class="cls-19" d="M58.29,138.05c.09-.53.16-1.07.25-1.6l-3.69.62a51.2,51.2,0,0,0-16,5.43,49.91,49.91,0,0,0-4.51,2.87c-1.81,1.49-3.57,3-5.3,4.64a25.75,25.75,0,0,0-5.19,8.26l.08.06h0C32.69,146.15,44.62,140.4,58.29,138.05Z"/><path class="cls-19" d="M18.2,132.68c1.11.85,2.22,1.69,3.34,2.43.06-.39.13-.77.19-1.16A16.32,16.32,0,0,1,18.2,132.68Z"/><path class="cls-19" d="M71,133.83a32.77,32.77,0,0,1,18.58-.19,12.53,12.53,0,0,1,2.08.54c5.91,2.12,11.18,5.14,14.46,10.95.5.87,1,1.77,1.53,2.65a2.84,2.84,0,0,0,2.87,1c0-.06,0-.11,0-.17h0c-6-8.57-12.75-15.71-24.06-17a51.47,51.47,0,0,0-15.57.32c-4,.74-8.05,2.15-12.1,3.13-.09.46-.2.92-.28,1.39l1.37-.22A106.35,106.35,0,0,0,71,133.83Z"/><path class="cls-19" d="M20.06,156.4c-.53.62-1.07,1.24-1.57,1.89a11.85,11.85,0,0,1,1.6-.71C20.08,157.19,20.06,156.8,20.06,156.4Z"/><path class="cls-19" d="M21,157.36c2.74-2.39,5.39-4.89,8.07-7.35a34.56,34.56,0,0,1,5.3-4.64,62.07,62.07,0,0,1,6.81-5c1.35-.84,2.65-2.13,2-3.95a3.61,3.61,0,0,0-1.58-2l-.28-.14a6.12,6.12,0,0,0-2.47-.62,11.72,11.72,0,0,0-4.39.4l-.26.09a6.86,6.86,0,0,0-1.3.65,8.18,8.18,0,0,1-9.64,0,8.37,8.37,0,0,0,9.07.27,13.66,13.66,0,0,1,1.87-.88l.26-.09a8.53,8.53,0,0,1,6.86.22l.28.14a11.62,11.62,0,0,1,2.12,1.43c2.26,2,5,2.24,7.76,1.75,1.11-.2,2.22-.38,3.33-.56s2.46-.44,3.7-.63c.08-.47.19-.93.28-1.39-6.2,1.5-12.44,2-18.73-2.6a1.89,1.89,0,0,0-1.34-.15c-5.65,1.06-11.26,3-17,1.65-.06.39-.13.77-.19,1.16,4.05,2.7,8.22,4.12,13.18.32.78-.6,2.21-.42,3.35-.44,1.59,0,3.6-.22,4.19,1.58.7,2.17-1.67,2.3-2.86,3.13-7,4.92-13.77,10.15-19.34,16.7,0,.4,0,.79,0,1.18A5,5,0,0,1,21,157.36Z"/><path class="cls-19" d="M34.5,134.09l-.26.09Z"/><path class="cls-19" d="M41.64,134.45l-.28-.14Z"/><path class="cls-19" d="M110.56,148.62h0c0,.06,0,.11,0,.17l.15,0h0Z"/><path class="cls-19" d="M106.43,146.13a19.65,19.65,0,0,0,1.23,1.65c-.54-.88-1-1.78-1.53-2.65-3.28-5.81-8.55-8.83-14.46-10.95a12.53,12.53,0,0,0-2.08-.54C96.08,135.6,101.82,139.79,106.43,146.13Z"/><path class="cls-19" d="M59.92,136.22l-1.37.22h0Z"/><path class="cls-19" d="M58.55,136.44c-1.24.19-2.47.4-3.7.63l3.69-.62Z"/><path class="cls-19" d="M29.07,150c1.73-1.59,3.49-3.15,5.3-4.64A34.56,34.56,0,0,0,29.07,150Z"/><path class="cls-19" d="M19.91,158.3h.19v-.17Z"/><path class="cls-19" d="M21,157.36l-.9.77v.17l3.76,0a.14.14,0,0,0,0-.06A3.28,3.28,0,0,0,21,157.36Z"/><path class="cls-19" d="M24,158.33h0l-.08-.06a.14.14,0,0,1,0,.06Z"/><path class="cls-19" d="M20.09,157.58a11.85,11.85,0,0,0-1.6.71h1.42l.19-.17C20.1,158,20.09,157.77,20.09,157.58Z"/><path class="cls-19" d="M20.1,158.13l.9-.77a5,5,0,0,0-.91.22C20.09,157.77,20.1,158,20.1,158.13Z"/><path class="cls-20" d="M146.26,164c-6.21,1.81-11.28,2.15-16.23-.6a5.15,5.15,0,0,0-3.92-.54c-6.56,2.92-13.15,5.77-20,8.77,14.41-4.19,28.47-8.35,42.32,2.14C147.55,170,143.27,168.31,146.26,164Z"/><path class="cls-2" d="M182.64,67.43c1.81,0,3.69.39,5.15-.39a94.41,94.41,0,0,0-9.85-2.82A4.83,4.83,0,0,0,182.64,67.43Z"/><path class="cls-2" d="M169.05,66.16c1.27,1.42,2.11,2.91,4.43,1.64,2-1.11,2-2.45,1.46-4.19q-4.66-.91-9.52-1.39C166.6,63.53,167.84,64.81,169.05,66.16Z"/><path class="cls-2" d="M189.79,64.2c.79-2.66,3.57-4,5.85-5.55,5.86-4.06,6.42-8.76.2-12.32-7.82-4.47-15.3-10-24.33-12.09-10.78-2.52-13.55,1.53-13.28,12.42.17,7.08,3.41,11.4,7.19,15.56q4.86.48,9.52,1.39c0-.13-.08-.26-.13-.4-1.56-4.43.18-9.55-3.14-13.77-1-1.32-.67-3.82,1.12-7.74.23,11.35,7.67,4.73,12,7.46-7.83,3.36-9.52,6.39-7.58,13a16.73,16.73,0,0,0,.74,2.06A94.41,94.41,0,0,1,187.79,67,4.41,4.41,0,0,0,189.79,64.2Z"/></g></g></svg>