<svg xmlns="http://www.w3.org/2000/svg" viewBox="0 0 163.05 274.08"><defs><style>.cls-1{fill:#d33228;}.cls-2{fill:#bf2b27;}.cls-3{fill:#e1ccb5;}.cls-4{fill:#1d64a3;}.cls-5{fill:#c1282b;}.cls-6{fill:#26558f;}.cls-7{fill:#1d4f7c;}.cls-8{fill:#13426a;}.cls-9{fill:#f5e3cb;}.cls-10{fill:#1d69a8;}.cls-11{fill:#154773;}</style></defs><title>heart</title><g id="Layer_2" data-name="Layer 2"><g id="Layer_1-2" data-name="Layer 1"><path d="M140.41,87.52l-.19.06h.23Z"/><path d="M35.82,81.39v.13l.07,0Z"/><path class="cls-1" d="M64.64,237.31c-1.56-.24-3.23-.43-5-.6A21.71,21.71,0,0,0,64.64,237.31Z"/><path class="cls-1" d="M48.11,95.93c8,0,15,.23,21.38.65a12.09,12.09,0,0,0-2.21-1.36v0h0c-2.37-.64-4.36-1.7-7.27-1.22-10.9,1.78-18.13-4.39-24.13-12.51l-.07,0q-.39,7.22-.77,14.41Z"/><path class="cls-2" d="M124.48,132.57c-.07-.28-.14-.57-.22-.86l-.53-.17Z"/><path class="cls-2" d="M146.62,142.8c-7.08-4.47-14.39-8.48-22.36-11.09.08.29.15.58.22.86,11.25,15.88,12.62,32.61,2.75,50.2-11.25,20-26.58,36.41-45.14,49.77a33,33,0,0,1-12.39,5.74,26,26,0,0,1-16.43-2c-1.69-.07-3.46-.12-5.29-.13a68.24,68.24,0,0,1,6,4.28c2.39,2,3.78,4.23,2.82,7.43,0,3.93-.07,7.85-.1,11.78.39,2.88.69,5.7,3,8,5.49,5.48,19.58,8.29,26.72,5.07,3.54-1.6,6.19-4.08,5.78-8.24-.46-4.57,2.12-3.71,4.72-3.06,2.41.61,4.82,1.21,7.24,1.77h0a77.58,77.58,0,0,0,14.63,2.25c9.86.37,13.85-2,16.26-11.5,1.21-4.8,2.59-9.52,4.09-14.2a366.06,366.06,0,0,1,17.28-42.85c.33-.71.66-1.43,1-2.15C167.56,173.24,164,158.69,146.62,142.8Z"/><path class="cls-2" d="M41.88,230.49a21.54,21.54,0,0,0,6.1,5.67c1.83,0,3.6.06,5.29.13A36.89,36.89,0,0,1,48,233.37,16.53,16.53,0,0,0,41.88,230.49Z"/><path class="cls-2" d="M59.67,236.71q-3-.28-6.4-.42a26,26,0,0,0,16.43,2q-2.34-.56-5.06-1A21.71,21.71,0,0,1,59.67,236.71Z"/><path class="cls-2" d="M122.06,131h0a14.5,14.5,0,0,0,1.08,2.4c.78,1.15,1.52,2.31,2.23,3.48-.23-1.46-.53-2.9-.89-4.32l-.75-1C123.17,131.36,122.62,131.17,122.06,131Z"/><path class="cls-2" d="M130.7,170c-10,27.11-29.18,47.26-52.93,63.05a23.53,23.53,0,0,1-13.13,4.23q2.72.42,5.06,1a33,33,0,0,0,12.39-5.74c18.56-13.36,33.89-29.75,45.14-49.77,9.87-17.59,8.5-34.32-2.75-50.2.36,1.42.66,2.86.89,4.32C131.61,147.16,135,158.45,130.7,170Z"/><path class="cls-2" d="M50.47,232.75c-2.82-1.83-5.55-4.78-9.61-4h0a13.19,13.19,0,0,0,1,1.77A16.53,16.53,0,0,1,48,233.37a36.89,36.89,0,0,0,5.26,2.92q3.39.14,6.4.42A28.31,28.31,0,0,1,50.47,232.75Z"/><path class="cls-2" d="M34.52,123.22v-5.77c-2.18,2.13-4.28,4.34-6.55,6.35-6.52,5.78-11.34,13.29-16.06,20.69-5.85,9.15-7,19.08-5.17,29.56h0C7,151,16.09,134.32,34.52,123.22Z"/><path class="cls-3" d="M147.62,102.51c-5-5.51-11.5-8.38-17.47-12.23h0l-7.4-2.7-4.63-.32h0l-4.17.46h0a12.67,12.67,0,0,0,5.15,4c12,5.92,14.41,24.86,4.65,33.71-.41.38-.83.69-1.25,1a9.48,9.48,0,0,1-3.25,1.6,7.94,7.94,0,0,1-2.66.29h0l5.47,2.64h0c.46,0,.89.06,1.34.08l.72,0c9.06.62,16.36,4.93,22.5,11.66,1.84-3.56,3.72-7.1,5.53-10.67C157.46,121.61,155.54,111.28,147.62,102.51Z"/><path class="cls-3" d="M123.4,131.09c.12.15.22.3.33.45l.53.17c-.05-.19-.09-.38-.14-.57Z"/><path class="cls-3" d="M124.12,131.14c0,.19.09.38.14.57,8,2.61,15.28,6.62,22.36,11.09C140.48,136.07,133.18,131.76,124.12,131.14Z"/><path class="cls-3" d="M123.73,131.54c-.11-.15-.21-.3-.33-.45-.45,0-.88-.08-1.34-.08C122.62,131.17,123.17,131.36,123.73,131.54Z"/><path class="cls-4" d="M34.52,100.73c.07.27.16.53.22.8l.3-5.6h-.52Z"/><path class="cls-4" d="M44.49,35.79a12.93,12.93,0,0,1,.88-1.44h0c-2.36-1.84-.7-5.79-3.78-7.25h0a11.22,11.22,0,0,0,2.48,8.1C44.23,35.4,44.35,35.6,44.49,35.79Z"/><path class="cls-4" d="M42.24,56.82a6.13,6.13,0,0,1,1-5.76c0-.88-.08-1.77-.14-2.65-.49.76-1,1.52-1.41,2.28-.84,1.93-1.29,3.87-.17,5.86a5.68,5.68,0,0,0,.57.53c.06-.08.1-.17.16-.26Z"/><path class="cls-4" d="M34.52,101.25c.08.09.14.19.22.28-.06-.27-.15-.53-.22-.8Z"/><path class="cls-5" d="M99.28,70.56a3,3,0,0,0-.66.75,1.88,1.88,0,0,1,.12.18,1.35,1.35,0,0,0,.43-.82h0A.57.57,0,0,1,99.28,70.56Z"/><path class="cls-6" d="M40.61,230.3a10.5,10.5,0,0,1,1.27.19,13.19,13.19,0,0,1-1-1.77,9.15,9.15,0,0,0-.3,1.57Z"/><path class="cls-6" d="M56.83,247.87c1-3.2-.43-5.39-2.82-7.43a68.24,68.24,0,0,0-6-4.28,21.54,21.54,0,0,1-6.1-5.67"/><path class="cls-6" d="M40.86,228.72h0c-3.89-.36-4.46-5.58-8.47-5.76h0q0,9,.08,18c-.69,8.74-.34,13.79,2.05,16.84,2.06,2.63,5.62,3.79,11.38,4.5,4,.48,7.44-.84,10.83-2.64,0-3.93.07-7.85.1-11.78"/><path class="cls-7" d="M145.14,70a6.84,6.84,0,0,0-7.42,4.7c-.12.34-.21.69-.32,1-1.2,4-1,8.16,3,11.84l0,.06h-.23c-1,.27-2,.49-3,.67,1-.18,2-.4,3-.67H122.75l7.4,2.7c-.1-.18-.22-.35-.33-.51.11.16.23.33.33.51h0c8.58-.38,14.18-3.09,16.35-7.48C148.17,79.42,147.79,75,145.14,70ZM128.62,88.57h0l.42.35Z"/><path class="cls-5" d="M115.13,68.28h0c-5.11-1.75-9.61,1.34-14.44,1.8a11.13,11.13,0,0,1-1.52.59C105,73.37,109.84,69.3,115.13,68.28Z"/><path class="cls-5" d="M99.28,70.56a.57.57,0,0,0-.11.11h0a11.13,11.13,0,0,0,1.52-.59c-.29,0-.57.08-.86.09A3,3,0,0,0,99.28,70.56Z"/><path class="cls-8" d="M11.19,36.75c2.15,4.49,3.86,4.82,7,1.29,1-1.15,1.48-2.77,2.95-3.57-4.18-4.65-8-3.52-11.76.62h0C10.38,35.21,10.78,35.89,11.19,36.75Z"/><path class="cls-8" d="M13.39,42.52c3.35.06,6.1-1.08,6.91-4.84.24-1.08.55-2.14.83-3.21-1.47.8-1.93,2.42-2.95,3.57-3.13,3.53-4.84,3.2-7-1.29-.41-.86-.81-1.54-1.82-1.66C10.65,37.61,7.85,42.42,13.39,42.52Z"/><path class="cls-9" d="M119.1,91.76a12.67,12.67,0,0,1-5.15-4h-.06c-4.18-1.36-8,.78-12,1.15a42.39,42.39,0,0,0-9.38,11.06c-2.94,4.67-5.45,9.64-8.51,14.21,2.12,3.63,5.87,5.05,9.21,7a19.55,19.55,0,0,1,2,1.33h0l21.39,5.88h0a7.94,7.94,0,0,0,2.66-.29,9.48,9.48,0,0,0,3.25-1.6c.42-.32.84-.63,1.25-1C133.51,116.62,131.05,97.68,119.1,91.76Z"/><path class="cls-5" d="M42.16,57.16a2.68,2.68,0,0,1-.07.27h.45Z"/><path class="cls-5" d="M45.11,57.76l.79-.33H42.54A2.54,2.54,0,0,0,45.11,57.76Z"/><path class="cls-5" d="M42.16,57.16l-.08-.08c-.09.12-.15.24-.23.35h.24A2.68,2.68,0,0,0,42.16,57.16Z"/><path class="cls-5" d="M35.82,81.39c1.92-8,4.38-15.92,6.27-24h-.24C36.85,64.63,35.35,72.76,35.82,81.39Z"/><path class="cls-5" d="M42.24,56.83h0c-.06.09-.1.18-.16.26l.08.08C42.19,57.05,42.22,56.94,42.24,56.83Z"/><path class="cls-10" d="M82.8,113.83a4.63,4.63,0,0,0-1.44-2.13,3.39,3.39,0,0,0-.51.21s0,0,0,.06h0L82,114.59A4.18,4.18,0,0,1,82.8,113.83Z"/><path class="cls-10" d="M76.32,61.09c.15-.07.28-.16.43-.24l-.89-.45h0l-3,.37h0a3.89,3.89,0,0,1,.4.64A6.4,6.4,0,0,0,76.32,61.09Z"/><path class="cls-10" d="M70.35,63.93l0,2.31a9,9,0,0,0,.85-.72c.93-1.29,3.28-2,2.17-4.1h-.24l0,0C73.2,63.09,71.08,62.94,70.35,63.93Z"/><path class="cls-10" d="M68.51,94l-.07,0c-.3-.1-.59-.22-.89-.34a4.13,4.13,0,0,1-.26,1.58C67.68,94.8,68.09,94.4,68.51,94Z"/><path class="cls-10" d="M73.32,61.42a3.89,3.89,0,0,0-.4-.64,3,3,0,0,1,.11.6l0,0Z"/><path class="cls-1" d="M77.06,107.19c0,.13-.06.25-.09.37a13.89,13.89,0,0,0,3.85,4.37l0,0C80.7,109.38,79.16,108.05,77.06,107.19Z"/><path class="cls-1" d="M77.06,107.19l-.49-.23c.11.22.28.39.4.6C77,107.44,77,107.32,77.06,107.19Z"/><path class="cls-1" d="M80.85,111.91l0,0,0,0h0S80.85,111.93,80.85,111.91Z"/><path class="cls-1" d="M83.42,114.44l-.37.17c1,4.37,3.53,5.87,6.69,6.34C86.76,119.93,84.23,118.33,83.42,114.44Z"/><path class="cls-1" d="M83.05,114.61a1.4,1.4,0,0,1-1.08,0c1.66,8.36,3.17,9.26,13.22,7.9h0c-1.79-.54-3.7-.94-5.45-1.54C86.58,120.48,84,119,83.05,114.61Z"/><path class="cls-1" d="M83.42,114.44c.81,3.89,3.34,5.49,6.32,6.51a23.85,23.85,0,0,0,3.43.21c-3.34-2-7.09-3.4-9.21-7h0Z"/><path class="cls-1" d="M89.74,121c1.75.6,3.66,1,5.45,1.54a19.55,19.55,0,0,0-2-1.33A23.85,23.85,0,0,1,89.74,121Z"/><path class="cls-1" d="M83.3,113.74a.68.68,0,0,0-.5.09c0,.1.1.18.14.28s.07.33.11.5l.37-.17Z"/><path class="cls-1" d="M83.05,114.61c0-.17-.08-.32-.11-.5s-.1-.18-.14-.28a4.18,4.18,0,0,0-.83.76A1.4,1.4,0,0,0,83.05,114.61Z"/><path class="cls-1" d="M83.3,113.74l.12.7.54-.3h0A1.26,1.26,0,0,0,83.3,113.74Z"/><path class="cls-4" d="M45.37,34.35h0c0,.86-.1,1.72-.15,2.58a10.79,10.79,0,0,0-.73-1.14c-.14-.19-.26-.39-.43-.59a11.22,11.22,0,0,1-2.48-8.1l-2.38-.47c-.08,2.88,3.55,6.2-.2,8.52-3.14,2-6.51.54-9.31-1.65-1.64-1.28-3.15-2.82-2-5.11,1.06-2.12,2.71-3.53,5.39-3,2,.4,3.93.66,5.9,1h0c-3.58-3.6-8-4.26-12.19-2-3.91,2.13-2.89,6.68-2.86,10.41,0,3.54,2.17,6.88,1.24,10.42-3-2.91-.08-8.1-4-10.77-.28,1.07-.59,2.13-.83,3.21-.81,3.76-3.56,4.9-6.91,4.84-5.54-.1-2.74-4.91-4-7.43h0C4,41.7,9.2,47.31,11.08,53.24c.37,1.39.73,2.79,1.09,4.19q.74,2.87,1.48,5.72c.91,7,1.83,14,2.73,20.85,3-.08,3.72-2.2,5-3.59,4.92-2.42,4.21,2.23,5.49,4.37h0c.53,1.32-.07,3,1.33,4,1.58,3.76,2.81,7.71,5.2,11.06h0v.1a10.4,10.4,0,0,0,1.09,3.85V95.93H35q.39-7.2.77-14.41v-.13c-.47-8.63,1-16.76,6-24,.08-.11.14-.23.23-.35a5.68,5.68,0,0,1-.57-.53c-1.12-2-.67-3.93.17-5.86.44-.76.92-1.52,1.41-2.28.38-.61.77-1.22,1.13-1.84a43.92,43.92,0,0,1-1,4.49C46.18,45.78,51.43,40.79,45.37,34.35Z"/><path class="cls-4" d="M45.37,34.35a12.93,12.93,0,0,0-.88,1.44,10.79,10.79,0,0,1,.73,1.14C45.27,36.07,45.33,35.21,45.37,34.35Z"/><path class="cls-4" d="M44.22,46.57c-.36.62-.75,1.23-1.13,1.84.06.88.12,1.77.14,2.65A43.92,43.92,0,0,0,44.22,46.57Z"/><path class="cls-5" d="M87,60.5a6.5,6.5,0,0,0,1.88,3.14l.2.12a2.78,2.78,0,0,1,.48-.76h0l-1.48-2.6h0A8.19,8.19,0,0,1,87,60.5Z"/><path class="cls-5" d="M88.94,64.38l.21.05c0-.18.1-.36.16-.54l-.23-.13A2.44,2.44,0,0,0,88.94,64.38Z"/><path class="cls-5" d="M89.31,63.89c.08-.3.17-.59.25-.89a2.78,2.78,0,0,0-.48.76Z"/><path class="cls-5" d="M78.81,61.88l.6.15a3.2,3.2,0,0,0-2.15-1.46c-.16.1-.34.19-.51.28Z"/><path class="cls-5" d="M77.26,60.57a7.06,7.06,0,0,0-1.4-.17l.89.45C76.92,60.76,77.1,60.67,77.26,60.57Z"/><path class="cls-5" d="M87,60.5a8.19,8.19,0,0,0,1.08-.1h0c-.4-.27-.82-.49-1.24-.74,0,.07,0,.14,0,.21A6.48,6.48,0,0,0,87,60.5Z"/><path class="cls-10" d="M98.54,71.43l.2.06h0a1.88,1.88,0,0,0-.12-.18A.83.83,0,0,0,98.54,71.43Z"/><path class="cls-10" d="M113.89,87.71H114l-.06,0Z"/><path class="cls-10" d="M101.85,88.86h0a6.55,6.55,0,0,0-.22-.79c-.13.08-.25.18-.38.27Z"/><path class="cls-10" d="M137.72,74.65a6.84,6.84,0,0,1,7.42-4.7c-.75-4-4-3-6.48-3-5.17.17-10.33.47-15.49.79l-8,.49h0c-5.29,1-10.12,5.09-16,2.39h0a1.35,1.35,0,0,1-.43.82h0l-.2-.06a.83.83,0,0,1,.08-.12c-2.15-3.67-7.21-3.37-9.47-6.88h0l-.24.1a.8.8,0,0,1,0-.15L79.41,62c0,.07.11.12.16.2l.06.33-.82-.68-2.06-1c-.15.08-.28.17-.43.24a6.4,6.4,0,0,1-3,.33c1.11,2-1.24,2.81-2.17,4.1a9,9,0,0,1-.85.72l-.33,14c0,.57,0,1.14,0,1.71h0c1.37,3,3.71,6.13-1.12,8.46-1.35.65-1.23,2-1.26,3.21.29.12.59.24.89.34l.07,0c-.42.4-.83.8-1.22,1.2v0a12.09,12.09,0,0,1,2.21,1.36c3.45,2.6,5.13,6.6,7.08,10.38l.49.23c2.1.86,3.64,2.19,3.79,4.72a3.39,3.39,0,0,1,.51-.21,4.63,4.63,0,0,1,1.44,2.13.68.68,0,0,1,.5-.09,1.26,1.26,0,0,1,.66.39h0c3.06-4.57,5.57-9.54,8.51-14.21a42.39,42.39,0,0,1,9.38-11.06h0l-.6-.52c.13-.09.25-.19.38-.27a6.55,6.55,0,0,1,.22.79c4-.37,7.86-2.51,12-1.15v0l.06,0h0l4.17-.46h0l4.63.32h17.47l.18-.06c-4-3.68-4.2-7.84-3-11.84C137.51,75.34,137.6,75,137.72,74.65Z"/><path class="cls-10" d="M88.91,64.53l.24-.1h0l-.21-.05A.8.8,0,0,0,88.91,64.53Z"/><path class="cls-10" d="M79.57,62.23c0-.08-.11-.13-.16-.2l-.6-.15.82.68Z"/><path class="cls-11" d="M39.2,26.63,39,26.41h0c-2-.33-3.95-.59-5.9-1-2.68-.56-4.33.85-5.39,3-1.15,2.29.36,3.83,2,5.11,2.8,2.19,6.17,3.61,9.31,1.65C42.75,32.83,39.12,29.51,39.2,26.63Z"/><path class="cls-5" d="M89.15,64.43h0c2.26,3.51,7.32,3.21,9.47,6.88a3,3,0,0,1,.66-.75,3,3,0,0,1,.55-.39c.29,0,.57-.06.86-.09,4.83-.46,9.33-3.55,14.44-1.8,0-1.24,0-2.47,0-3.71,0-1,0-2,0-3h0a22.85,22.85,0,0,0-2.37-11h0A31.19,31.19,0,0,0,97.26,31.71c-5.37-2.92-5.26-6.15-1.3-10,3.07-3,6.23-5.86,9.44-8.7s3.53-6,1-9.52c-2.71-3.72-6.16-4.53-10-2.16-5.22,3.24-9.74,7.27-12.51,13C82.29,17.54,80.66,20.75,79,24s-4.58,3.79-7.48,2.77c-3.39-1.19-1.91-4-1.2-6.34.66-2.14,1.43-4.25,2.25-6.33C74,10.55,74.32,7.41,70,5.67s-6.16,1-7.8,4.24c-2.78,5.43-2.89,11.26-2.65,17.16.09,2,.37,4.42-2.49,4.7s-3.26-2.15-3.67-4.06c-.66-3.07-.91-6.23-1.4-9.34s-2.29-4.67-5.62-4.43-5,2.12-5.14,5.16a79.49,79.49,0,0,0,.32,8h0c3.08,1.46,1.42,5.41,3.78,7.25h0c6.06,6.44.81,11.43-2.14,16.71a6.13,6.13,0,0,0-1,5.76h0c0,.11-.05.22-.08.33l.38.27h-.45c-1.89,8-4.35,15.93-6.27,24l.06.09C41.88,89.6,49.11,95.77,60,94c2.91-.48,4.9.58,7.27,1.22h0a4.13,4.13,0,0,0,.26-1.58c0-1.26-.09-2.56,1.26-3.21C73.64,88.08,71.3,85,69.93,82h0c-.28-.79-.53-1.57-.74-2.36A22.73,22.73,0,0,1,69.25,67a23.88,23.88,0,0,1,1.1-3C71,63.08,72.63,63.06,73,62l16,2.39"/><path class="cls-5" d="M69.19,79.59a6.55,6.55,0,0,1,.78.65l.33-14a7.19,7.19,0,0,1-1,.71A22.73,22.73,0,0,0,69.19,79.59Z"/><path class="cls-5" d="M70,80.24a6.55,6.55,0,0,0-.78-.65c.21.79.46,1.57.74,2.36h0C69.94,81.38,70,80.81,70,80.24Z"/><path class="cls-5" d="M70.3,66.24l0-2.31a23.88,23.88,0,0,0-1.1,3A7.19,7.19,0,0,0,70.3,66.24Z"/><path class="cls-1" d="M125.37,136.89c-.71-1.17-1.45-2.33-2.23-3.48a14.5,14.5,0,0,1-1.08-2.4h0l-5.47-2.64h0L95.2,122.49h0c-5,.67-7.87.79-9.71-.28l-3.41-7.47L81,111.88l-4.3-5h-.19c-1.92-3.75-3.6-7.7-7-10.28-6.33-.42-13.43-.65-21.38-.65H35l-.3,5.6c-.08-.09-.14-.19-.22-.28v2.57A10.4,10.4,0,0,1,33.43,100v-.1c-2.39-3.35-3.62-7.3-5.2-11.06-1.4-1-.8-2.71-1.33-4h0C23.63,84.39,22,86.23,20.83,89c-.57,1.36-.49,3.53-2.51,3.63-11.1.57-10.87,10.76-15.14,17.27-3.59,5.49.12,11.48-2,16.65-1.8,4.34-1.21,8.14-.23,12.32,2.24,9.54,5.57,18.91,4.44,29-.22,2-1,4.57,1.37,6.18h0c-1.83-10.48-.68-20.41,5.17-29.56,4.72-7.4,9.54-14.91,16.06-20.69,2.27-2,4.37-4.22,6.55-6.35v5.77C16.09,134.32,7,151,6.74,174.05c1.07,3.41,2,6.85,3.21,10.22A121.63,121.63,0,0,0,32.39,223h0c4,.18,4.58,5.4,8.47,5.76h0c4.06-.75,6.79,2.2,9.61,4a28.31,28.31,0,0,0,9.2,4c1.74.17,3.41.36,5,.6a23.53,23.53,0,0,0,13.13-4.23c23.75-15.79,43-35.94,52.93-63.05C135,158.45,131.61,147.16,125.37,136.89Z"/></g></g></svg>