<svg xmlns="http://www.w3.org/2000/svg" viewBox="0 0 285.11 228.16"><defs><style>.cls-1{fill:#a53723;}.cls-2{fill:#1971b4;}.cls-3{fill:#f9ca9e;}.cls-4{fill:#e5b48b;}.cls-5{fill:#575252;}.cls-6{fill:#2874b4;}.cls-7{fill:#1b5990;}.cls-8{fill:#143559;}.cls-9{fill:#3b5476;}</style></defs><title>Asset 6</title><g id="Layer_2" data-name="Layer 2"><g id="Layer_1-2" data-name="Layer 1"><path class="cls-1" d="M218.49,56.81c20.32-.33,40.7.86,60.88-2.52,5-.83,5.54,2.28,5.68,5.92.92,23-10.2,40.13-29.32,53.24a82.84,82.84,0,0,1-19.15,9.93c-8.66,3.07-16.05,8.1-23.31,13.36-6.19,4.48-12.59,8.64-20.63,9.6-3.37-1.29-1.86-4.09-1.83-6.15a103.28,103.28,0,0,0-2.24-21.25c-1.81-11.09-4.88-22-6.84-33-2.62-14.76,2.48-23.1,16.41-27.93,3.63-1.25,7.23-.52,10.84-.74C212.15,57.05,215.36,57.73,218.49,56.81Z"/><path class="cls-2" d="M146.7,53.93c1.27-13,1.81-25.8-4.47-38C139.9,11.41,144,5,150.87,1.59c6.33-3.11,12.3-1.61,15.82,4.13a38.57,38.57,0,0,1,4.95,14.72c1.68,11.54,3.1,23.13,2.72,34.83-2.76-2.14-3.51,1.78-5.94,1.7-4.52-.13-9.09-.08-13.65.18C151.76,56.79,148.14,57.76,146.7,53.93Z"/><path class="cls-3" d="M146.7,53.93c2.39,2.82,5.65,1.37,8.58,1.56,4.67,1,9.41.17,14.1.49,1.4.09,3.27-.83,4,1.27,5.55,1.89,10-1.83,15.06-2.68,3-.5,6.07-1.38,8.71-.41,7,2.58,14.19,2.19,21.36,2.65-3.5,1.27-7.18.93-10.79,1.07-17.56.67-27.08,12.05-24.08,28.4,2,10.79,5.6,21.28,6.5,32.25,1.65,6.66-2.72,12.11-4.15,18.16-.09.39-.73.44-1.12.34-.92-.24-.66-.9-.62-1.49,1.21-17.17-3.23-33.33-9.93-49.08-1.62-3.79-3.7-7.51-4.59-11.46-1.69-7.5-6.91-10.68-14.21-12-13.59-2.52-27.32-1-41-1.33-3.64-.08-7.29,0-10.93,0,9.41-2.47,19-1,28.52-1.15C138.29,60.39,142.58,57.57,146.7,53.93Z"/><path class="cls-4" d="M184.24,135.54l.58.34c-.36-6.37,5-11.17,5.31-17.35,3.25,9.08,2,18.51,2.51,27.81-3.92,9.26-11.28,17-12.59,27.48-.94,7.59.6,13.5,8.28,17.21a6.12,6.12,0,0,1,3.55,4.19c-7,1.12-13.32,1.45-17.33-5.29-.56-.92-1.23-1.93-2.63-1a1.8,1.8,0,0,1-1.31-2.1c-1.79-9.69-.67-19,4.16-27.81C180.89,152.28,181.61,143.57,184.24,135.54Z"/><path class="cls-5" d="M117.22,195.62c2.3-3.9,7-4.32,10.52-6.35,3.28,10.27,2,20-3.48,29.38-2.14,3.73-4.24,7.46-9.18,5-4.49-2.27-2.71-5.91-.86-9.52C117.18,208.32,120,202.31,117.22,195.62Z"/><path class="cls-6" d="M158.52,198.09c3.27,10.37,2.11,13.72-5.41,15.57-1.65-1.6,2.07-4.29-1.25-5.52a8.27,8.27,0,0,0-7.15.72c-3.53,2,.86,4.08,0,6.14-5.86.82-9.18-.83-8.47-7.15.36-3.17,0-6.41,0-9.61,1.93-6.3,3.75-7.16,12.67-8.06C155.59,189.5,156.71,194,158.52,198.09Z"/><path class="cls-7" d="M158.52,198.09c-6.93-8.66-15.3-8.6-22.25.14l-3.93-11.66c3.52-2,6.81-4.74,10.62-6,4-1.3,9.4-4.43,11.51,2.89.37,1.28,2,2.24,3,3.34C156.23,190.71,159.43,194.23,158.52,198.09Z"/><path class="cls-8" d="M144.75,215c-1.66-1.8-6.27-2.22-3.4-6.13,2.06-2.82,10.25-3.57,13.21-1.36,4,3-1.47,4-1.45,6.15C150.58,215.54,147.66,215.25,144.75,215Z"/><path class="cls-9" d="M173.37,57.25c-6-.56-12.22.29-18.09-1.76,3.84-.08,7.67-.22,11.51-.22,3,0,6,.15,5.05-6.07l2.52,6.07C174.68,56.22,174.22,56.82,173.37,57.25Z"/><path class="cls-1" d="M185.58,118.58c-1.69-14.12-8.56-26.79-12.23-40.25-4.43-16.22-18.5-19.11-30.95-18.07-5.44.46-10.86.7-16.3.89-7.5.26-15-.58-22.5.47l-3.39.31c-22.49,2-44.57,5.21-62.95,19.22A33.3,33.3,0,0,0,29.1,89h0c-4.17,4.19-6.85,9.27-9.66,14.28a26.11,26.11,0,0,0-3.87,9.32h0c-4.16,11-6.08,22.44-7.26,34-2.57,25.28-.35,51-8,75.82-1.17,3.8,1.06,5.53,5.16,5.6,14,.26,27.84.13,41.7-1.92,26.46-3.9,49-15.65,70.05-30.52,3.69-1.84,8.23-2.43,10.52-6.35a6.07,6.07,0,0,1,4.61-2.7c4,.52,6.63-2.43,9.9-3.72,4.73-1.87,9-3.32,11.83,2.51a2.79,2.79,0,0,0,3.42,1.46c2.45,1.88,4.7,4.12,7.42,5.53,3.62,1.89,6.66,1.39,7-3.39-.47-1.09-.13-2.41-1.06-3.36-2.15-2.22-4.7-4-7-6.06-3.25-2.84-3.79-5.49-.07-8.57,4.43-3.67,8.39-7.83,12.65-11.67,6.57-7,7.29-16.1,9.55-24.62A70.55,70.55,0,0,0,185.58,118.58Zm-143.72-31h-.12l-.28-.38C41.62,86.86,42.32,87.71,41.86,87.54Z"/></g></g></svg>