<svg xmlns="http://www.w3.org/2000/svg" viewBox="0 0 376.88 388.57"><defs><style>.cls-1{fill:#cf6b5d;}.cls-2{fill:#9e4c41;}.cls-3{fill:#43959f;}.cls-4{fill:#4cadb5;}.cls-5{fill:#bf5f53;}.cls-6{fill:#bf6054;}.cls-7{fill:#d36a5b;}.cls-8{fill:#bf5e54;}.cls-9{fill:#ad574a;}</style></defs><title>lungs</title><g id="Layer_2" data-name="Layer 2"><g id="Layer_1-2" data-name="Layer 1"><path class="cls-1" d="M2,363.12C-1.93,342.4.64,321.8,3.85,301.36c4.5-28.61,11.1-56.75,21.94-83.74,7.91.52,13.16,6.59,12.09,15.18-1.56,12.56.21,24.82,2.12,37.12,3,19.29,11.84,36.09,18.07,45.94C47.54,300.91,40.45,277,37.31,251.65a43.67,43.67,0,0,1,.53-12.74c1.24-7.26,2.88-8.31,8.9-3.74a292.67,292.67,0,0,0,62.44,36,48.49,48.49,0,0,1,5.63,3c7.09,4.23,8,7.1,3.53,14-7.84,12.13-18,22.24-28.65,31.92-19,17.28-40.81,29.8-64.86,38.55a48.45,48.45,0,0,1-17,3.14C5.77,361.77,3.9,362.58,2,363.12Z"/><path class="cls-2" d="M116,328.24a113.21,113.21,0,0,0,42.45-14.5c9.85-5.64,9.59-15.83,8.69-26.87.07.14,2.12.75,1.62,1.57s.3,2.28.53,3.46c-.7,10.24-.8,20.56-2.23,30.69-2.54,17.93-18.16,32-37.26,32.87a265.3,265.3,0,0,0-81.53,17c-5.06,1.44-6-1.68-2.21-3.45C60.85,362,69.22,347.81,82,338.81,91.91,331.78,104.05,329.92,116,328.24Z"/><path class="cls-3" d="M171.09,135.49c13.46,4.2,24.58,1.29,32.73-10.73l4.22,9.51c-.21,9.95-5.18,19.17-4.46,29.27a12.49,12.49,0,0,1-7.59-2.37c-6.72-5-13.22-4.32-19.65.51-6-3.38-1.48-10.3-4.91-14.55C171.32,143.25,171.2,139.37,171.09,135.49Z"/><path class="cls-4" d="M200.71,95.06q-.3-11.76-.59-23.52h0c0-3.06.07-6.12.1-9.18h0c.59-17,1.1-34,1.8-51,.32-7.6-3-11.47-10.66-11.36-3.35.05-6.7,0-10,.13-5.81.27-8.87,3.16-8.78,9.22.25,17,.4,34,.59,51.06h0q-.07,10.09-.14,20.2h0c.06,1.24.13,2.48.19,3.71h0q.07,8.34.16,16.68h0l-.57,25.58h0L170.66,130c-1.16,1.75-1.43,3.53-.14,5.35l.57.11c12.5,8.52,27.72,3.53,32.73-10.73Q202.26,109.91,200.71,95.06Z"/><path class="cls-5" d="M174.46,165.12h0c.63-1.14,1.25-2.29,1.89-3.44-4.88-3.75,1.58-11.34-4.92-14.55-.49,7.58,0,15.41-5.68,23-.93-3.16-1.48-5.18-2.12-7.17-.54-1.68,2.47-4.47-1.35-5.07-2.7-.42-5.73-.69-6,3.44h0l-.14,0c-2.81,3.59-2.79,7.2-.07,10.83,1.39,5.6-1.08,10.84-1.76,16.21-3.26,25.4-9.7,49.84-21.88,72.69-3.68,6.92-7.52,7.86-14.43,6-17.63-4.79-35-10.7-50.36-20.35-16-10.06-32.36-20.83-37.44-41.27a23.55,23.55,0,0,0-4.38,12.23c6.72,4.44,12.71,9.63,10.83,18.68-1.85,8.83-.32,17.35.19,26.1C38,282.19,46.24,299.28,55.52,316c2.67,4.81,5.8,10.38,14.24,13.87-21-30.06-30.67-60.89-30.37-96.18,2.59,1,3.4,1,4.29,1.74,19.38,15.46,40.72,27.51,63.49,37.27,15.17,6.51,15.37,8.08,4.8,20.88-16.51,20-35.51,37.46-58.41,49.66C38.76,351.08,23.8,360,5.89,359.42h0c-2.5,0-3.55,1.47-3.92,3.7,2.35,19.32,8.22,23.22,26.16,17.06,6.79-2.33,13.41-5.17,20.11-7.77-.75-.61-4.34-1-1.15-2.15,12.13-4.23,19.75-13.87,28.06-22.54a50,50,0,0,1,23.73-14.06c3.55-1,7.05-2.1,10.54-3.26,2.24.2,4.5.25,6.75.24,9.47-.88,18.29-4.17,27.21-7.15,15.48-5.18,27.24-13.23,25.16-32.15l.72.56a31.63,31.63,0,0,0,1.34-5.23c3.47-40.44,6.29-80.91,3.86-121.55Z"/><path class="cls-6" d="M28,358.2c1.64.3,2.85,1.2,2.7,2.9-.18,2.06-2,1.85-3.44,1.82-1.25,0-2.49-.67-2.31-2.08A2.92,2.92,0,0,1,28,358.2Z"/><path class="cls-1" d="M173.26,146.13c-.07-3.1.11-6.21-.83-9.23a7,7,0,0,0-1.45-2.21,4.15,4.15,0,0,0-.43-.3c0-1.46.07-2.91.11-4.36-6.59-3.7-3.55-12.23-8.42-16.78h0c-4.31-9.72-5.91-20.66-13.22-29h0c.79-2.86-1.35-4.73-2.35-7-3.34-5.9-7.65-10.75-14.24-13.12-12.67-1.85-20.77,5.89-28,14.23-32.6,37.72-57,80.33-74.28,127-1,6.79,1.09,12.43,5.58,17.61,22.64,26.05,52.54,38.83,85.06,46.91,5.14,1.27,8.94-.41,11.69-4.83a111.9,111.9,0,0,0,6.18-11.21c9.84-20.91,15.24-43,18.11-65.84.63-5,3-10.11.34-15.24a5.43,5.43,0,0,0-1.1-.66h0l.06-10.24a4.86,4.86,0,0,0,1-.28c4.14-2.43,4.33.69,5,3.43.57,2.34,1.28,5.23,4.08,5.33,3.27.11,4-3.15,5-5.58C173.7,158.79,173.51,152.45,173.26,146.13Z"/><path class="cls-7" d="M214.94,271.41c-.12,2-.24,3.94-.37,5.93-3.46,0-4-3.38-6.15-4.68-.85,2.26-1.56,4.12-2.26,6-3.49-12.67-1.42-25.83-3.44-38.63.87-1.59-.47-3.76,1.33-5.11,3.62,3.84.62,8.78,2.15,13C209.07,255.71,212,263.55,214.94,271.41Z"/><path class="cls-8" d="M214.94,271.41c21.69,8.19,42.58,2.81,63.11-4.35,11.17-3.9,21.6-9.63,32-15.38,7.88-4.34,10.57-10.46,9.16-17.89-2.86-15-.38-30.34-3.14-45.38-.72-3.95-4.8-7.52-2.07-12a16.08,16.08,0,0,1-1.77-9.72c.41-4.16,2.63-7.27,6.8-7.12,4,.14,5.37,3.41,5,7.3-.19,2.22.09,4.47-.15,6.71,2-2.5-2.67-7.17,2.79-8.52,24.64,46.87,40,96.7,47.89,149,2.42,16.1,2.65,32.23,1.81,48.41a58.81,58.81,0,0,1-1.56,10.82c-3.69,15-9.08,18.13-23.68,13.15-8.91-3-17.56-6.84-26.32-10.3-7.49-4.57-14.53-9.84-20.18-16.51-9.95-11.76-22.74-17.76-37.53-20.65-4-.79-9.88-.55-9.2-7.58,1.53-3.33,4.83-3.42,7.72-4.09,27.42-6.39,46.21-38.57,47.73-67.91-4.65,0-7.79,3.23-11.32,5.33-12.31,7.35-24.81,14.14-38.31,19.21a69,69,0,0,1-38.58,3.26c-5.29-1.06-6.7-.09-5.39,5.21,1.53,6.19,1.67,12.65,3.64,18.81,1.1,3.43,1.87,7.2-1.41,10.21-8.77-.79-12-6-12.73-14.36-.63-7,1.14-14.48-3.26-20.91l.1-7.46c1.34-2.14-.3-4.88,1.7-7.38,3.78.1,4.79,3.4,6.35,6C213.31,275.19,213.05,273.16,214.94,271.41Z"/><path class="cls-9" d="M206.06,286.09c7,4.06,3.94,11.72,4.36,17,.74,9.11,4.12,14.38,11.93,17.75,12.05,4.24,24.89,5.83,36.62,11.12.34,4.57,4.39,3.92,6.94,4.22,21,2.48,35.69,15.14,48.7,30.2,3.16,3.66,9.13,4.12,10.27,9.7-25.7-9-52.18-13.47-79.33-15.6-21.26-1.66-34.74-17.68-36.22-39.22C208.53,309.51,207.17,297.81,206.06,286.09Z"/><path class="cls-7" d="M259,332c-12.86-1.57-25.76-3-36.62-11.12-1.93-11-3.51-22.09-5.95-33-1.24-5.53.15-5.86,4.76-4.31,20,6.69,38.42.94,56.12-7.91,11.09-5.55,21.55-12.35,32.35-18.48,2-1.15,4.42-3.19,6.72-1.36s.88,4.39.31,6.78c-4.65,19.67-10.47,38.58-25.79,53.27C281.7,324.62,270.52,328.41,259,332Z"/><path class="cls-7" d="M321.77,175.67a6.73,6.73,0,0,0,4.46.14c2.66-.77.74-2.15.16-3.31-1.28-2.56-2.15-5.1.35-7.48-1.51-3.79-2.52-6.5-4.8-9.59h0q-8.56-14.53-17.14-29.08l-9.13-12.67a81.73,81.73,0,0,0-12.9-18.4h0L270,80.71h0c-2.78-2.36-5.39-5-8.38-7-11.92-8.21-21-6-28.77,6.79-7.7,9.93-11.48,21.73-15.94,33.21l-8.81,20.6c-4.59,9.29-9.59,18.5-4.47,29.27l.24-.06c-1.16,4.12-2.56,8.22-1.26,12.59h0c-1.34,21.31-.72,42.62.16,63.93a3.32,3.32,0,0,0,1-1.68c1.46,12.06,3,24.09,10.17,34.59,5.22,3.72,11.2,4.45,17.39,4.7,28.9,1.18,54.26-9.22,78.81-23.11,9.79-5.54,13-13.27,11.33-23.58-1.23-7.6-1-15.2-1.21-22.82-.24-10.71,5.32-22.26,1.56-32.43"/></g></g></svg>