<?xml version="1.0" encoding="UTF-8"?>
<svg width="22px" height="19px" viewBox="0 0 22 19" version="1.1" xmlns="http://www.w3.org/2000/svg" xmlns:xlink="http://www.w3.org/1999/xlink">
    <!-- Generator: Sketch 52.1 (67048) - http://www.bohemiancoding.com/sketch -->
    <title>Path</title>
    <desc>Created with Sketch.</desc>
    <g id="Page-1" stroke="none" stroke-width="1" fill="none" fill-rule="evenodd">
        <g id="round-home-24px" transform="translate(-1.000000, -2.000000)" stroke="#6E6E6E">
            <path d="M4.5,12.5 L3.3,12.5 C2.38032739,12.5 1.95302306,11.3605218 2.63537035,10.7584855 L10.9966026,3.22737934 C11.5664228,2.71754022 12.4335772,2.71754022 13.0046297,3.22848554 L21.3553957,10.7503717 C22.0596265,11.3539981 21.6219175,12.5 20.7,12.5 L19.5,12.5 L19.5,19 C19.5,19.8261424 18.8261424,20.5 18,20.5 L15,20.5 C14.1738576,20.5 13.5,19.8261424 13.5,19 L13.5,14.5 L10.5,14.5 L10.5,19 C10.5,19.8261424 9.82614237,20.5 9,20.5 L6,20.5 C5.17385763,20.5 4.5,19.8261424 4.5,19 L4.5,12.5 Z" id="Path"></path>
        </g>
    </g>
</svg>