<?xml version="1.0" encoding="iso-8859-1"?>
<!-- Generator: Adobe Illustrator 18.0.0, SVG Export Plug-In . SVG Version: 6.00 Build 0)  -->
<!DOCTYPE svg PUBLIC "-//W3C//DTD SVG 1.1//EN" "http://www.w3.org/Graphics/SVG/1.1/DTD/svg11.dtd">
<svg xmlns="http://www.w3.org/2000/svg" xmlns:xlink="http://www.w3.org/1999/xlink" version="1.1" id="Capa_1" x="0px" y="0px" viewBox="0 0 313.957 313.957" style="enable-background:new 0 0 313.957 313.957;" xml:space="preserve" width="512px" height="512px">
<g>
	<path d="M312.615,88.267c-3.802-17.586-15.237-32.237-31.376-40.196c-19.188-9.462-41.619-7.715-58.955,4.139   c-13.85-12.571-36.071-19.345-65.304-19.345c-29.234,0-51.455,6.774-65.305,19.345c-17.336-11.853-39.766-13.603-58.956-4.139   C16.579,56.03,5.144,70.681,1.342,88.267c-3.802,17.588,0.562,35.654,11.972,49.567l2.491,3.037c0.423,1.24,0.947,2.454,1.592,3.63   c4.656,8.485,14.091,13.047,24.659,13.047c6.449,0,13.321-1.7,19.781-5.245c8.626-4.733,17.603-17.9,24.368-29.754   c10.916,16.987,28.273,33.752,44.269,47.182v84.857c0,14.613,11.89,26.503,26.504,26.503s26.504-11.89,26.504-26.503v-84.856   c15.997-13.43,33.354-30.195,44.27-47.183c6.765,11.854,15.741,25.021,24.368,29.755c6.46,3.545,13.333,5.245,19.781,5.245   c10.568,0,20.004-4.562,24.659-13.047c0.645-1.175,1.169-2.389,1.592-3.628l2.492-3.038   C312.053,123.921,316.416,105.854,312.615,88.267z M56.065,141.783c-4.489,2.463-9.334,3.765-14.009,3.765   c-6.51,0-11.796-2.549-14.139-6.819c-2.481-4.521-1.061-9.51,0.006-12.082c2.192-5.283,6.763-10.131,12.539-13.3   c1.823-1,7.727-3.326,23.157-3.326l0.001-0.001v0.001c4.722,0,9.909,0.22,15.426,0.653   C66.173,134.894,58.21,140.606,56.065,141.783z M75.191,91.617c0,2.238,0.233,4.51,0.648,6.805   c-3.896-0.24-8.046-0.401-12.218-0.401c0,0-0.001,0-0.001,0c-11.049,0-22.207,1.117-28.93,4.806   c-5.065,2.779-9.3,6.383-12.567,10.43c-2.279-6.584-2.752-13.729-1.232-20.763c2.505-11.588,10.04-21.241,20.673-26.485   c12.451-6.142,26.967-5.108,38.315,2.383C76.798,75.244,75.191,83.001,75.191,91.617z M171.211,160.428   c-1.729,1.425-2.729,3.548-2.729,5.787v88.373c0,6.343-5.16,11.503-11.504,11.503s-11.504-5.16-11.504-11.503v-88.374   c0-2.239-1.001-4.362-2.729-5.787c-33.398-27.535-52.554-52.615-52.554-68.811c0-14.904,5.938-25.754,18.15-33.169   c11.404-6.924,28.223-10.583,48.638-10.583s37.232,3.659,48.637,10.583c12.213,7.415,18.15,18.265,18.15,33.169   C223.766,107.812,204.611,132.893,171.211,160.428z M286.04,138.729c-2.343,4.27-7.629,6.819-14.139,6.819   c-4.675,0-9.52-1.302-14.009-3.765c-2.145-1.177-10.108-6.886-22.982-31.109c5.517-0.434,10.705-0.653,15.427-0.653   c15.43,0,21.334,2.326,23.157,3.326c5.777,3.17,10.347,8.017,12.539,13.3C287.101,129.219,288.521,134.208,286.04,138.729z    M291.835,113.257c-3.267-4.047-7.502-7.651-12.567-10.43c-6.722-3.688-17.881-4.806-28.93-4.806c-4.173,0-8.323,0.161-12.22,0.401   c0.415-2.295,0.648-4.568,0.648-6.805c0-8.616-1.607-16.373-4.688-23.225c11.348-7.489,25.864-8.523,38.315-2.383   c10.633,5.244,18.168,14.897,20.673,26.485C294.586,99.527,294.113,106.673,291.835,113.257z" fill="#6e6e6e"/>
	<circle cx="172.458" cy="64.568" r="7.5" fill="#6e6e6e"/>
	<path d="M149.952,55.218c-0.044,0-0.087,0-0.13,0.001c-29.87,0.507-44.309,14.151-44.909,14.733   c-2.977,2.881-3.083,7.656-0.203,10.633c1.479,1.527,3.44,2.299,5.403,2.299c1.861,0,3.725-0.695,5.174-2.098   c0.447-0.415,11.242-10.169,34.789-10.568c4.142-0.07,7.442-3.484,7.372-7.626C157.379,58.492,154.035,55.218,149.952,55.218z" fill="#6e6e6e"/>
</g>
<g>
</g>
<g>
</g>
<g>
</g>
<g>
</g>
<g>
</g>
<g>
</g>
<g>
</g>
<g>
</g>
<g>
</g>
<g>
</g>
<g>
</g>
<g>
</g>
<g>
</g>
<g>
</g>
<g>
</g>
</svg>
