<svg xmlns="http://www.w3.org/2000/svg" viewBox="0 0 338.87 272.61"><defs><style>.cls-1{fill:#d3928c;}.cls-2{fill:#f5d0c1;}.cls-3{fill:#d85161;}.cls-4{fill:#f4cfc1;}.cls-5{fill:#c74857;}</style></defs><title>uterus</title><g id="Layer_2" data-name="Layer 2"><g id="Layer_1-2" data-name="Layer 1"><path class="cls-1" d="M87.37,70.54c-1.25,2.54,5.55,5.38,4.3,7.92,13.29,1.05,21.51,2.2,33.25-3.63.66-2.63-.53-5.17-1.7-7.7C111.56,66.52,98.11,67.53,87.37,70.54Z"/><path class="cls-2" d="M24.35,75.44c4-3,6-6.52,2.87-11.23-1.46-2.19-.56-4.67-1.32-6.91,5.2-5.88,17.22-7.51,26.09-4,6.65,2.63,11.63,8.13,18.49,10.27l-.06,0c5.91,1.72,10.84,5.78,17,7,2.86,1.74,4.21,4.55,5.31,7.54-7.35,2.76-10.07,4.09-15.25,9.13-8.73,8.48-19,11.51-28.22,9.35-8.86-2.08-18.61-5-19.55-17.13C29.43,76.43,26,77,24.35,75.44Z"/><path class="cls-3" d="M148.52,213.19a98.45,98.45,0,0,0-8.16-35.35c-7.63-16.94-8.82-34.11-1.9-51.6,2.74-6.95,3.1-13.95-.47-20.73-6.52-12.4-12.9-28.26-17.15-38.28a9.64,9.64,0,0,0-3.07-3.78c-3.29-2.11-4.9-3.85-8.24-4.46-5.24-1.2-10.11.23-14.52,2.69C87.68,65.76,80,66.33,72,65.22a10.61,10.61,0,0,1-2.19-.79A95.72,95.72,0,0,1,45.08,45c-6.15-6.87-14.41-8.29-22.85-9.15a7.37,7.37,0,0,0-7.77,4.36c-1.62,3.54-.44,6.6,2.11,9.35,3.06,3.32,7.65,4.67,10.46,8.29,1.23,2.58,2.67,5.19,3,8,.51,4.39.79,9.12-5.66,9.61C6.26,68.79-.5,59.49,0,42,.41,29.36,8.08,21.3,20.71,20.45c12.08-.81,22.23,3.48,30.68,12,4.08,4.11,7.63,8.71,12.47,12.1,17.24,12.09,32.59,9.14,43.52-8.71a75.47,75.47,0,0,1,24.74-25.14A70.18,70.18,0,0,1,227,30.15c1.82,2.6,3.57,5.24,5.32,7.88,10,15.09,25.49,18.15,40.41,7.86A68.33,68.33,0,0,0,285.46,34a38.07,38.07,0,0,1,19.86-12.3c10.74-2.76,20.95-2.22,28.4,6.63,7.23,8.58,5.78,19,2.16,28.63-4.57,12.17-15,17.07-26.91,19.62a2.33,2.33,0,0,1-2.76-2.77c.78-4.91-1.06-9.52-1.29-14.29,2.24-3.52,6.35-3.49,9.64-5,9.26-4.17,11.39-8.35,8.82-18.08-.68-2.37-2.4-3.81-4.68-3.41-6.05,1.07-12.18.55-18.23,1.29-1.06.13-2.35.12-2.94,1C291.27,44,280.76,47.07,273,53.87c-9.83,8.64-21.12,8.77-32.71,3.56a82,82,0,0,0-8.77-3.71c-7-2.25-15.38,2-18.52,9.82-5.7,14.24-13.38,27.08-25,37.26-7.89,6.93-6.79,15.4-5,24.2,4,19.42,3.21,38.86.39,58.36-1.93,13.32-5.32,26.48-4.58,40.14.22,4.19-1.75,7.16-6.46,7.38-4,.18-7.49-.57-8.43-5.28-.32-1.58-.7-3.11-2.05-4.15-4.87-2.38-7.58-.86-8.28,4.47-.3,2.3-.51,4.68-3.36,6.71C147.67,226,150.37,219.31,148.52,213.19Z"/><path class="cls-4" d="M306,59.2c4.86,5.14.43,11.87,3,17.4,2,12-7.39,17.15-14.59,23.3-2.88,2.45-7.09,3.28-10.56,5.1-9.3,4.88-16.81-1.75-24.23-4.76-6-2.44-13-5.86-15.92-13C241,85,240,82.38,241.5,79.08c4.72-6.39,10.36-11.21,18.88-11.35,3.36,0,5.82-2.15,8.42-4,7.87-5.6,16.53-9.37,26.25-10C299.51,53.49,304.28,53.52,306,59.2Z"/><path class="cls-1" d="M241.92,79.74c.58,2.49,1.17,5,1.75,7.47-10.38-1.35-20.45-3.51-28.61-10.76A11.64,11.64,0,0,1,217,69.71C226.06,71.18,234.1,75.19,241.92,79.74Z"/><path class="cls-5" d="M318.32,30.81A136.26,136.26,0,0,1,297.17,32c-1.39,0-4.28-.21-3.16,1.87,2.91,5.42-2.64,5.39-4.33,6.26A87,87,0,0,0,273.1,51.64c-8.49,7.24-18.12,9.12-28.65,5.42-3.69-1.3-7.18-3.19-10.77-4.79-7.86-3.5-18.53.09-21.64,8.15-6.16,16-15.1,29.83-27.78,41.44-4,3.68-5.57,8.46-4.75,14.91.9,7.07,3.28,13.73,4,20.87,2.91,29.53-6.74,58-6.59,87.25,0,3.13-1.8,3.65-4.5,4.19-8.86,1.76-5.14-6.62-8-9.59-10.5-3.44-11.38-2.74-13.66,11.49-2.41-6,.94-12.33-2.18-17.79q0,14.24.07,28.49c-.66,6.76-1.2,13.52-2,20.25-.62,5.13,1.34,8,6.5,8.6h0a52.24,52.24,0,0,0,23.84,1.27h0a14.23,14.23,0,0,0,9.44-1.6c3.95-1,5.45-3.5,5.07-7.53-.79-8.59-1.4-17.19-2.08-25.79h0c0-20.13-.16-40.3,8.53-59.16,8.22-17.82,8.27-35.79,1.26-53.93-1.58-4.08-2.63-8.51-1.15-12.42a230.65,230.65,0,0,1,17.07-34.92c2.09-1.56,2.52-4,3.27-6.25,3.42-10.35,9.78-13.67,20-10.49a31.79,31.79,0,0,1,6.54,2.79c8.67,5,17.13,4.13,25.61-.52,8.88-4.87,16.47-11.38,23.8-18.26,7-6.56,15.18-9.28,24.73-7.22,1.8.39,3.58,1,5.42.22C326.76,30.29,321.15,30.37,318.32,30.81Z"/></g></g></svg>